<?xml version="1.0" standalone="no"?>
<!DOCTYPE svg PUBLIC "-//W3C//DTD SVG 1.1//EN" "http://www.w3.org/Graphics/SVG/1.1/DTD/svg11.dtd" >
<svg xmlns="http://www.w3.org/2000/svg" xmlns:xlink="http://www.w3.org/1999/xlink" version="1.1">
<metadata>
Created by FontForge 20190801 at Fri May  3 08:59:31 2024
 By www-data
Alfin Weniardi
</metadata>
<defs>
<font id="ibrand" horiz-adv-x="549" >
  <font-face 
    font-family="ibrand"
    font-weight="400"
    font-stretch="normal"
    units-per-em="1000"
    panose-1="0 0 0 0 0 0 0 0 0 0"
    ascent="750"
    descent="-250"
    x-height="500"
    cap-height="700"
    bbox="-74 -250 1074 893"
    underline-thickness="50"
    underline-position="-125"
    unicode-range="U+000D-2212"
  />
<missing-glyph horiz-adv-x="500" 
 />
    <glyph glyph-name=".notdef" horiz-adv-x="500" 
 />
    <glyph glyph-name="uni0000" horiz-adv-x="0" 
 />
    <glyph glyph-name="uni0000" horiz-adv-x="0" 
 />
    <glyph glyph-name="uni000D" unicode="&#xd;" horiz-adv-x="250" 
 />
    <glyph glyph-name="space" unicode=" " horiz-adv-x="250" 
 />
    <glyph glyph-name="exclam" unicode="!" horiz-adv-x="268" 
d="M105 186q-5 67 -15 167.5t-16 179t-9 167.5h137q-3 -89 -9 -167.5t-16 -179t-15 -167.5h-57zM60 65q0 33 20.5 53t53.5 20t53.5 -20t20.5 -53q0 -34 -20.5 -54t-53.5 -20t-53.5 20t-20.5 54z" />
    <glyph glyph-name="quotedbl" unicode="&#x22;" horiz-adv-x="356" 
d="M90 458l-30 242h101l-30 -242h-41zM225 458l-30 242h101l-30 -242h-41z" />
    <glyph glyph-name="numbersign" unicode="#" horiz-adv-x="644" 
d="M105 0l34 200h-109v70h121l27 160h-107v70h119l34 200h76l-34 -200h161l34 200h76l-34 -200h111v-70h-123l-27 -160h109v-70h-121l-34 -200h-76l34 200h-161l-34 -200h-76zM227 270h161l27 160h-161z" />
    <glyph glyph-name="dollar" unicode="$" horiz-adv-x="550" 
d="M520 217q0 -80 -51 -130.5t-150 -56.5v-83h-76v85q-126 16 -213 99l79 86q66 -57 134 -69v167q-47 13 -75 23.5t-62.5 31.5t-51 53t-16.5 75q0 77 54.5 123.5t150.5 49.5v79h76v-84q107 -16 191 -89l-73 -91q-58 47 -118 63v-133q43 -12 73.5 -25t62.5 -35.5t48.5 -57.5
t16.5 -81zM243 436v120q-85 -6 -85 -54q0 -24 21.5 -38.5t63.5 -27.5zM319 293v-147q81 11 81 69q0 50 -81 78z" />
    <glyph glyph-name="percent" unicode="%" horiz-adv-x="784" 
d="M30 490q0 221 145 221q144 0 144 -221t-144 -221q-145 0 -145 221zM130 490q0 -126 44 -126q46 0 46 126t-46 126q-44 0 -44 -126zM143 0l392 700h107l-392 -700h-107zM465 211q0 221 145 221q144 0 144 -221t-144 -221q-145 0 -145 221zM565 211q0 -126 44 -126
q46 0 46 126t-46 126q-44 0 -44 -126z" />
    <glyph glyph-name="ampersand" unicode="&#x26;" horiz-adv-x="633" 
d="M470 0l-36 43q-81 -60 -185 -60q-99 0 -166.5 53.5t-67.5 150.5q0 69 34.5 117t93.5 89q-59 79 -59 153q0 71 43 119t122 48q75 0 124.5 -44t49.5 -121q0 -103 -109 -181l122 -148q29 52 48 125l112 -30q-30 -115 -82 -188l104 -126h-148zM240 457q63 46 63 91
q0 24 -13.5 37t-35.5 13q-23 0 -36.5 -14t-13.5 -40q0 -37 36 -87zM361 131l-139 166q0 1 -0.5 1t-0.5 1l-3 3q-83 -55 -83 -115q0 -39 29 -64t86 -25q64 0 111 33z" />
    <glyph glyph-name="quotesingle" unicode="'" horiz-adv-x="221" 
d="M90 458l-30 242h101l-30 -242h-41z" />
    <glyph glyph-name="parenleft" unicode="(" horiz-adv-x="301" 
d="M150 325q0 -283 121 -467h-63q-178 180 -178 467t178 467h63q-121 -184 -121 -467z" />
    <glyph glyph-name="parenright" unicode=")" horiz-adv-x="300" 
d="M151 325q0 283 -121 467h63q178 -180 178 -467t-178 -467h-63q121 184 121 467z" />
    <glyph glyph-name="asterisk" unicode="*" horiz-adv-x="388" 
d="M120 505l-42 43l79 57l-97 -14v60l97 -15l-79 59l43 41l58 -78l-15 97h60l-15 -98l59 80l42 -42l-80 -59l98 15v-60l-98 15l80 -59l-42 -42l-59 80l15 -98h-60l15 97z" />
    <glyph glyph-name="plus" unicode="+" horiz-adv-x="502" 
d="M60 284v110h131v136h120v-136h131v-110h-131v-136h-120v136h-131z" />
    <glyph glyph-name="comma" unicode="," horiz-adv-x="208" 
d="M30 65q0 33 20.5 53t53.5 20q34 0 54 -21t20 -59q0 -48 -30 -95.5t-64 -66.5l-27 11q27 42 32 85q-27 5 -43 24t-16 49z" />
    <glyph glyph-name="hyphen" unicode="-" horiz-adv-x="369" 
d="M60 215v90h249v-90h-249z" />
    <glyph glyph-name="period" unicode="." horiz-adv-x="208" 
d="M30 65q0 33 20.5 53t53.5 20t53.5 -20t20.5 -53q0 -34 -20.5 -54t-53.5 -20t-53.5 20t-20.5 54z" />
    <glyph glyph-name="slash" unicode="/" horiz-adv-x="432" 
d="M30 0l265 700h107l-265 -700h-107z" />
    <glyph glyph-name="zero" unicode="0" horiz-adv-x="501" 
d="M15 350q0 186 62 273.5t174 87.5q111 0 173 -87.5t62 -273.5t-62 -273.5t-173 -87.5q-112 0 -174 87.5t-62 273.5zM140 350q0 -120 25 -183t85 -63q61 0 86 63t25 183q0 121 -25 183.5t-86 62.5t-85.5 -62.5t-24.5 -183.5z" />
    <glyph glyph-name="one" unicode="1" horiz-adv-x="255" 
d="M100 0v530q-35 -21 -85 -26v103q87 22 109 93h101v-700h-125z" />
    <glyph glyph-name="two" unicode="2" horiz-adv-x="484" 
d="M19 73q3 54 22 97.5t48 72.5t63.5 53.5t68 45.5t61.5 42t45 50.5t17 64.5q0 41 -23 69t-73 28q-78 0 -173 -78l-60 98q117 95 235 95q103 0 161 -61.5t58 -152.5q0 -52 -21 -96t-52.5 -73t-70.5 -57t-74.5 -49t-64.5 -49t-39 -58h315v-115h-443v73z" />
    <glyph glyph-name="three" unicode="3" horiz-adv-x="533" 
d="M126 438h18q114 2 164.5 21.5t50.5 65.5q0 71 -97 71q-92 0 -187 -78l-60 98q117 95 247 95q105 0 163.5 -50.5t58.5 -132.5q0 -95 -84 -148q118 -64 118 -186q0 -93 -69.5 -149.5t-208.5 -56.5q-117 0 -224 56l46 105q86 -46 176 -46q155 0 155 99q0 40 -26 66.5t-72 37
t-83 14t-86 3.5v115z" />
    <glyph glyph-name="four" unicode="4" horiz-adv-x="515" 
d="M326 0v132h-311v91l335 477h101v-453h49v-115h-49v-132h-125zM173 247h153v219z" />
    <glyph glyph-name="five" unicode="5" horiz-adv-x="517" 
d="M58 356l27 344h389v-115h-273l-10 -129q141 8 226 -52.5t85 -180.5q0 -101 -65 -168t-205 -67q-110 0 -217 56l46 105q86 -46 169 -46q79 0 113 34.5t34 82.5q0 61 -49.5 92t-130.5 31q-46 0 -101 -11z" />
    <glyph glyph-name="six" unicode="6" horiz-adv-x="531" 
d="M268 -9q-253 0 -253 314q0 113 25 196t67 127t88.5 64.5t98.5 20.5q109 0 188 -84l-74 -88q-52 57 -112 57q-67 0 -106.5 -58.5t-46.5 -148.5q24 32 67 52t96 20q96 0 153 -64.5t57 -170.5q0 -107 -67.5 -172t-180.5 -65zM144 227q0 -57 33 -89t90 -32q58 0 91 32t33 89
q0 58 -33 89.5t-91 31.5q-57 0 -90 -31.5t-33 -89.5z" />
    <glyph glyph-name="seven" unicode="7" horiz-adv-x="507" 
d="M15 585v115h477v-85l-311 -615h-131l296 585h-331z" />
    <glyph glyph-name="eight" unicode="8" horiz-adv-x="567" 
d="M15 210q0 132 115 190q-64 43 -64 129q0 84 60 134.5t158 50.5t158 -50.5t60 -134.5q0 -87 -64 -130q114 -59 114 -193q0 -104 -71.5 -160t-196.5 -56q-120 0 -194.5 57.5t-74.5 162.5zM191 522q0 -39 24.5 -59t67.5 -20q44 0 69 20t25 59q0 38 -25 57.5t-69 19.5
q-43 0 -67.5 -19.5t-24.5 -57.5zM135 215q0 -52 41.5 -81t106.5 -29q71 0 110 28t39 79q0 52 -39.5 84t-108.5 32t-109 -31.5t-40 -81.5z" />
    <glyph glyph-name="nine" unicode="9" horiz-adv-x="531" 
d="M263 713q66 0 115 -22.5t74.5 -54t41 -78.5t19 -83.5t3.5 -81.5q0 -111 -22 -192t-61.5 -125.5t-85.5 -64.5t-102 -20q-117 0 -196 84l74 88q52 -57 118 -57q135 0 147 207q-24 -32 -67 -52t-96 -20q-96 0 -153 64.5t-57 170.5q0 107 67.5 172t180.5 65zM387 477
q0 57 -33 89t-90 32q-58 0 -91 -32t-33 -89q0 -58 33 -89.5t91 -31.5q57 0 90 31.5t33 89.5z" />
    <glyph glyph-name="colon" unicode=":" horiz-adv-x="268" 
d="M60 474q0 33 20.5 53t53.5 20t53.5 -20t20.5 -53q0 -34 -20.5 -54t-53.5 -20t-53.5 20t-20.5 54zM60 65q0 33 20.5 53t53.5 20t53.5 -20t20.5 -53q0 -34 -20.5 -54t-53.5 -20t-53.5 20t-20.5 54z" />
    <glyph glyph-name="semicolon" unicode=";" horiz-adv-x="268" 
d="M60 474q0 33 20.5 53t53.5 20t53.5 -20t20.5 -53q0 -34 -20.5 -54t-53.5 -20t-53.5 20t-20.5 54zM60 65q0 33 20.5 53t53.5 20q34 0 54 -21t20 -59q0 -48 -30 -95.5t-64 -66.5l-27 11q27 42 32 85q-27 5 -43 24t-16 49z" />
    <glyph glyph-name="less" unicode="&#x3c;" horiz-adv-x="550" 
d="M60 389l430 211v-122l-293 -128l293 -128v-122l-430 211v78z" />
    <glyph glyph-name="equal" unicode="=" horiz-adv-x="569" 
d="M60 398v100h449v-100h-449zM60 189v100h449v-100h-449z" />
    <glyph glyph-name="greater" unicode="&#x3e;" horiz-adv-x="550" 
d="M490 311l-430 -211v122l293 128l-293 128v122l430 -211v-78z" />
    <glyph glyph-name="question" unicode="?" horiz-adv-x="465" 
d="M229 597q-76 0 -115 -75l-84 72q74 117 207 117q95 0 146.5 -56t51.5 -132q0 -43 -18.5 -79t-45.5 -63l-54 -54t-45.5 -65.5t-18.5 -83.5h-65q0 51 13.5 93t32 70t37.5 52.5t32.5 53t13.5 58.5q0 40 -21.5 66t-66.5 26zM147 65q0 33 20.5 53t53.5 20t53.5 -20t20.5 -53
q0 -34 -20.5 -54t-53.5 -20t-53.5 20t-20.5 54z" />
    <glyph glyph-name="at" unicode="@" horiz-adv-x="851" 
d="M597 -63q-74 -33 -171 -33q-183 0 -297 114.5t-114 298.5q0 183 114 298t297 115q182 0 296 -115t114 -298q0 -137 -53 -200.5t-124 -63.5q-62 0 -103.5 43.5t-39.5 100.5h-5q-42 -75 -135 -73q-65 1 -116 45.5t-49 132.5q2 101 76 155.5t194 54.5q66 0 134 -16l-22 -261
q-2 -30 12 -49t40 -19q71 0 71 150q0 135 -79 216.5t-211 81.5t-211.5 -81.5t-79.5 -216.5t79.5 -216.5t211.5 -81.5q73 0 125 24zM332 308q-3 -40 19.5 -59.5t49.5 -19.5q26 0 50 18.5t28 64.5l7 85q-55 8 -102 -13.5t-52 -75.5z" />
    <glyph glyph-name="A" unicode="A" horiz-adv-x="611" 
d="M0 0l240 700h131l240 -700h-131l-58 185h-233l-58 -185h-131zM225 300h160l-80 254z" />
    <glyph glyph-name="B" unicode="B" horiz-adv-x="617" 
d="M30 0v700h336q85 0 135.5 -51.5t50.5 -133.5q0 -95 -71 -133q54 -18 87.5 -62.5t33.5 -114.5q0 -91 -56.5 -148t-151.5 -57h-364zM350 430q34 0 55.5 21t21.5 56q0 36 -21 57t-56 21h-195v-155h195zM378 115q44 0 71.5 27.5t27.5 71.5q0 46 -27.5 73.5t-71.5 27.5h-223
v-200h223z" />
    <glyph glyph-name="C" unicode="C" horiz-adv-x="666" 
d="M15 350q0 165 95.5 264t257.5 99q181 0 283 -127l-102 -70q-66 82 -181 82q-107 0 -167.5 -66.5t-60.5 -181.5t60.5 -181.5t167.5 -66.5q115 0 181 82l102 -70q-102 -127 -283 -127q-162 0 -257.5 99t-95.5 264z" />
    <glyph glyph-name="D" unicode="D" horiz-adv-x="647" 
d="M30 0v700h265q155 0 246 -94.5t91 -251.5q0 -162 -90.5 -258t-246.5 -96h-265zM155 115h128q104 0 164 63.5t60 169.5q0 109 -60 173t-164 64h-128v-470z" />
    <glyph glyph-name="E" unicode="E" horiz-adv-x="521" 
d="M30 0v700h476v-115h-351v-159h289v-115h-289v-197h351v-115z" />
    <glyph glyph-name="F" unicode="F" horiz-adv-x="521" 
d="M30 0v700h476v-115h-351v-159h289v-115h-289v-311h-125z" />
    <glyph glyph-name="G" unicode="G" horiz-adv-x="666" 
d="M15 350q0 165 95.5 264t257.5 99q181 0 283 -127l-102 -70q-66 82 -181 82q-107 0 -167.5 -66.5t-60.5 -181.5t60.5 -181.5t167.5 -66.5q89 0 147 44v120h-147v115h272v-280q-91 -114 -272 -114q-162 0 -257.5 99t-95.5 264z" />
    <glyph glyph-name="H" unicode="H" horiz-adv-x="616" 
d="M30 0v700h125v-289h306v289h125v-700h-125v296h-306v-296h-125z" />
    <glyph glyph-name="I" unicode="I" horiz-adv-x="185" 
d="M30 0v700h125v-700h-125z" />
    <glyph glyph-name="J" unicode="J" horiz-adv-x="585" 
d="M283 -13q-121 0 -194 70.5t-73 189.5l-1 40h126v-49q0 -64 39 -100t104 -36q67 0 106.5 36t39.5 100v347h-98v115h223v-453q0 -119 -73 -189.5t-194 -70.5h-5z" />
    <glyph glyph-name="K" unicode="K" horiz-adv-x="607" 
d="M30 0v700h125v-315l278 315h156l-278 -315l281 -385h-146l-215 295l-76 -86v-209h-125z" />
    <glyph glyph-name="L" unicode="L" horiz-adv-x="508" 
d="M30 0v700h125v-585h338v-115h-463z" />
    <glyph glyph-name="M" unicode="M" horiz-adv-x="757" 
d="M30 0v700h145l204 -533l203 533h145v-700h-125v429l-162 -425l1 -4h-125l1 4l-162 425v-429h-125z" />
    <glyph glyph-name="N" unicode="N" horiz-adv-x="587" 
d="M422 0l-267 478v-478h-125v700h135l267 -478v478h125v-700h-135z" />
    <glyph glyph-name="O" unicode="O" horiz-adv-x="737" 
d="M15 350q0 165 95.5 264t257.5 99q163 0 258.5 -99t95.5 -264t-95.5 -264.5t-258.5 -99.5q-162 0 -257.5 99.5t-95.5 264.5zM140 350q0 -116 60.5 -182.5t167.5 -66.5t168 67t61 182t-61 181.5t-168 66.5t-167.5 -66.5t-60.5 -181.5z" />
    <glyph glyph-name="P" unicode="P" horiz-adv-x="617" 
d="M30 0v700h317q115 0 185 -70t70 -185q0 -118 -70 -189t-185 -71h-192v-185h-125zM336 300q64 0 102.5 38.5t38.5 102.5q0 66 -38.5 105t-102.5 39h-181v-285h181z" />
    <glyph glyph-name="Q" unicode="Q" horiz-adv-x="753" 
d="M15 355q0 164 95 261t258 97t258.5 -97t95.5 -261q0 -155 -87 -240h103v-115h-370q-163 0 -258 95.5t-95 259.5zM140 355q0 -114 60 -177t168 -63t168.5 63t60.5 177t-61 178.5t-168 64.5q-108 0 -168 -64.5t-60 -178.5z" />
    <glyph glyph-name="R" unicode="R" horiz-adv-x="621" 
d="M30 0v700h325q111 0 179 -69t68 -183q0 -81 -37 -141t-103 -87l144 -220h-148l-131 200h-172v-200h-125zM155 315h188q61 0 97.5 37t36.5 99q0 61 -36.5 97.5t-97.5 36.5h-188v-270z" />
    <glyph glyph-name="S" unicode="S" horiz-adv-x="546" 
d="M531 203q0 -96 -63 -155t-185 -59q-162 0 -268 102l79 86q86 -73 188 -73q67 0 95.5 26t28.5 64q0 39 -29 64.5t-72 36.5t-93.5 26.5t-93.5 33t-72 57.5t-29 98q0 90 63.5 145.5t179.5 55.5q150 0 260 -94l-73 -91q-86 70 -186 70q-60 0 -89.5 -21t-29.5 -55
q0 -28 21.5 -47.5t56 -30.5t76 -21t82.5 -25t75.5 -37t56 -61.5t21.5 -94.5z" />
    <glyph glyph-name="T" unicode="T" horiz-adv-x="574" 
d="M224 0v585h-209v115h544v-115h-210v-585h-125z" />
    <glyph glyph-name="U" unicode="U" horiz-adv-x="619" 
d="M307 -13q-128 0 -202.5 70t-74.5 190v453h125v-462q0 -64 40.5 -100t112.5 -36q74 0 115 35.5t41 100.5v462h125v-453q0 -120 -74.5 -190t-202.5 -70h-5z" />
    <glyph glyph-name="V" unicode="V" horiz-adv-x="567" 
d="M346 0h-125l-221 700h129l155 -499l154 499h129z" />
    <glyph glyph-name="W" unicode="W" horiz-adv-x="918" 
d="M221 0l-221 700h129l155 -499l154 499h129l-44 -139l112 -360l154 499h129l-221 -700h-125l-113 358l-113 -358h-125z" />
    <glyph glyph-name="X" unicode="X" horiz-adv-x="604" 
d="M15 700h138l149 -244l149 244h138l-214 -350l214 -350h-138l-149 244l-149 -244h-138l214 350z" />
    <glyph glyph-name="Y" unicode="Y" horiz-adv-x="591" 
d="M0 700h131l165 -351l164 351h131l-233 -490v-210h-125v210z" />
    <glyph glyph-name="Z" unicode="Z" horiz-adv-x="520" 
d="M15 585v115h490v-85l-330 -500h330v-115h-490v85l330 500h-330z" />
    <glyph glyph-name="bracketleft" unicode="[" horiz-adv-x="300" 
d="M240 -72h-180v840h180v-64h-65v-712h65v-64z" />
    <glyph glyph-name="backslash" unicode="\" horiz-adv-x="432" 
d="M402 0h-107l-265 700h107z" />
    <glyph glyph-name="bracketright" unicode="]" horiz-adv-x="300" 
d="M60 768h180v-840h-180v64h65v712h-65v64z" />
    <glyph glyph-name="asciicircum" unicode="^" horiz-adv-x="463" 
d="M281 700l151 -440h-97l-104 329l-103 -329h-97l151 440h99z" />
    <glyph glyph-name="underscore" unicode="_" horiz-adv-x="404" 
d="M0 -172v103h404v-103h-404z" />
    <glyph glyph-name="grave" unicode="`" horiz-adv-x="203" 
d="M173 548h-41q-32 24 -62 63.5t-40 81.5h82q6 -68 61 -145z" />
    <glyph glyph-name="a" unicode="a" horiz-adv-x="562" 
d="M273 507q116 0 187.5 -71.5t71.5 -187.5v-248h-120v48q-44 -57 -148 -57q-109 0 -179 71.5t-70 187.5q0 115 71 186t187 71zM412 249q0 69 -37.5 108.5t-100.5 39.5q-64 0 -101.5 -39.5t-37.5 -108.5t37.5 -108.5t101.5 -39.5q63 0 100.5 39.5t37.5 108.5z" />
    <glyph glyph-name="b" unicode="b" horiz-adv-x="563" 
d="M31 700h120v-249q44 57 147 57q110 0 180 -71.5t70 -187.5q0 -115 -71 -186t-185 -71q-113 0 -187 69.5t-74 187.5v451zM428 250q0 69 -37.5 108.5t-101.5 39.5q-63 0 -100.5 -39.5t-37.5 -108.5t37.5 -108.5t100.5 -39.5q64 0 101.5 39.5t37.5 108.5z" />
    <glyph glyph-name="c" unicode="c" horiz-adv-x="540" 
d="M135 249q0 -69 37.5 -108.5t100.5 -39.5q94 0 127 80h125q-20 -88 -87 -139t-164 -51q-116 0 -187.5 71.5t-71.5 187.5q0 115 71.5 186t187.5 71q97 0 163.5 -50.5t86.5 -136.5h-125q-33 77 -126 77q-63 0 -100.5 -39.5t-37.5 -108.5z" />
    <glyph glyph-name="d" unicode="d" horiz-adv-x="563" 
d="M413 700h120v-451q0 -118 -74.5 -187.5t-187.5 -69.5q-114 0 -184.5 71t-70.5 186q0 116 70 187.5t179 71.5q104 0 148 -57v249zM136 250q0 -69 37.5 -108.5t100.5 -39.5q64 0 101.5 39.5t37.5 108.5t-37.5 108.5t-101.5 39.5q-63 0 -100.5 -39.5t-37.5 -108.5z" />
    <glyph glyph-name="e" unicode="e" 
d="M149 320h251q-33 77 -126 77q-92 0 -125 -77zM274 101q76 0 113 54h131q-25 -76 -89 -120t-154 -44q-116 0 -187.5 71.5t-71.5 187.5q0 115 71.5 186t187.5 71t187 -70.5t71 -186.5q0 -14 -2 -40h-391q10 -52 45.5 -80.5t88.5 -28.5z" />
    <glyph glyph-name="f" unicode="f" horiz-adv-x="318" 
d="M302 707v-110q-62 0 -92.5 -22.5t-37.5 -74.5h113v-110h-114v-390h-120v390h-50v110h51q8 101 71.5 154t178.5 53z" />
    <glyph glyph-name="g" unicode="g" horiz-adv-x="562" 
d="M532 249v-229q0 -100 -69 -163t-181 -63q-148 0 -234 109l98 69q56 -68 137 -68q61 0 95 32t34 84v29q-44 -57 -148 -57q-109 0 -179 71.5t-70 187.5q0 115 71 186t187 71t187.5 -71.5t71.5 -187.5zM412 250q0 69 -37.5 108.5t-100.5 39.5q-64 0 -101.5 -39.5
t-37.5 -108.5t37.5 -108.5t101.5 -39.5q63 0 100.5 39.5t37.5 108.5z" />
    <glyph glyph-name="h" unicode="h" horiz-adv-x="520" 
d="M150 700v-235q47 44 126 44q70 0 120.5 -35.5t72 -82t21.5 -93.5v-298h-120v295q0 50 -31.5 76.5t-78.5 26.5t-78.5 -26.5t-31.5 -76.5v-295h-120v700h120z" />
    <glyph glyph-name="i" unicode="i" horiz-adv-x="180" 
d="M24 645q0 27 19 46.5t47 19.5t47 -19.5t19 -46.5q0 -28 -19 -47.5t-47 -19.5t-47 19.5t-19 47.5zM30 0v500h120v-500h-120z" />
    <glyph glyph-name="j" unicode="j" horiz-adv-x="236" 
d="M70 644q0 30 21 51t50 21q30 0 50.5 -21t20.5 -51t-20.5 -51t-50.5 -21q-29 0 -50 21t-21 51zM81 -43v543h120v-549q0 -200 -182 -200q-13 0 -19 1v110q81 0 81 95z" />
    <glyph glyph-name="k" unicode="k" horiz-adv-x="534" 
d="M30 0v700h120v-507l226 307h143l-185 -250l181 -250h-142l-110 153l-113 -153h-120z" />
    <glyph glyph-name="l" unicode="l" horiz-adv-x="180" 
d="M30 0v700h120v-700h-120z" />
    <glyph glyph-name="m" unicode="m" horiz-adv-x="860" 
d="M260 509q115 0 170 -80q55 80 170 80q59 0 105 -20.5t72 -53t39.5 -67.5t13.5 -70v-298h-120v295q0 50 -31.5 76.5t-78.5 26.5t-78.5 -26.5t-31.5 -76.5v-295h-120v295q0 50 -31.5 76.5t-78.5 26.5t-78.5 -26.5t-31.5 -76.5v-295h-120v298q0 35 13.5 70t39.5 67.5t72 53
t105 20.5z" />
    <glyph glyph-name="n" unicode="n" horiz-adv-x="520" 
d="M260 509q59 0 105 -20.5t72 -53t39.5 -67.5t13.5 -70v-298h-120v295q0 50 -31.5 76.5t-78.5 26.5t-78.5 -26.5t-31.5 -76.5v-295h-120v298q0 35 13.5 70t39.5 67.5t72 53t105 20.5z" />
    <glyph glyph-name="o" unicode="o" 
d="M16 250q0 115 71.5 186t187.5 71t187 -70.5t71 -186.5t-71 -187.5t-187 -71.5t-187.5 71.5t-71.5 187.5zM136 249q0 -69 37.5 -108.5t100.5 -39.5q64 0 101.5 39.5t37.5 108.5t-37.5 108.5t-101.5 39.5q-63 0 -100.5 -39.5t-37.5 -108.5z" />
    <glyph glyph-name="p" unicode="p" horiz-adv-x="563" 
d="M151 -200h-120v451q0 118 74 187.5t187 69.5q114 0 185 -71t71 -186q0 -116 -70 -187.5t-180 -71.5q-103 0 -147 57v-249zM428 250q0 69 -37.5 108.5t-101.5 39.5q-63 0 -100.5 -39.5t-37.5 -108.5t37.5 -108.5t100.5 -39.5q64 0 101.5 39.5t37.5 108.5z" />
    <glyph glyph-name="q" unicode="q" horiz-adv-x="563" 
d="M533 -200h-120v249q-44 -57 -148 -57q-109 0 -179 71.5t-70 187.5q0 115 70.5 186t184.5 71q113 0 187.5 -69.5t74.5 -187.5v-451zM136 250q0 -69 37.5 -108.5t100.5 -39.5q64 0 101.5 39.5t37.5 108.5t-37.5 108.5t-101.5 39.5q-63 0 -100.5 -39.5t-37.5 -108.5z" />
    <glyph glyph-name="r" unicode="r" horiz-adv-x="294" 
d="M30 280q0 112 66 170.5t182 58.5v-110q-61 0 -94.5 -30t-33.5 -89v-280h-120v280z" />
    <glyph glyph-name="s" unicode="s" horiz-adv-x="430" 
d="M143 365q0 -20 28 -32t68 -21.5t80 -24.5t68 -49.5t28 -86.5q0 -75 -53.5 -116t-141.5 -41q-121 0 -205 76l64 94q63 -60 144 -60q32 0 52 11t20 32q0 23 -28 37t-68 24t-80 24t-68 47t-28 84q0 69 48.5 107t133.5 38q115 0 208 -76l-64 -93q-71 59 -146 59
q-60 0 -60 -33z" />
    <glyph glyph-name="t" unicode="t" horiz-adv-x="298" 
d="M282 103v-110q-123 0 -187 60.5t-64 176.5v470h120v-200h114v-110h-114v-159q0 -68 30.5 -98t100.5 -30z" />
    <glyph glyph-name="u" unicode="u" horiz-adv-x="520" 
d="M260 -9q-59 0 -105 20.5t-72 53t-39.5 67.5t-13.5 70v298h120v-295q0 -50 31.5 -76.5t78.5 -26.5t78.5 26.5t31.5 76.5v295h120v-298q0 -35 -13.5 -70t-39.5 -67.5t-72 -53t-105 -20.5z" />
    <glyph glyph-name="v" unicode="v" horiz-adv-x="502" 
d="M189 0l-189 500h129l122 -339l122 339h129l-189 -500h-124z" />
    <glyph glyph-name="w" unicode="w" horiz-adv-x="802" 
d="M189 0l-189 500h129l122 -339l122 339h129l-37 -98l86 -241l122 339h129l-189 -500h-124l-88 234l-88 -234h-124z" />
    <glyph glyph-name="x" unicode="x" horiz-adv-x="502" 
d="M180 250l-165 250h138l98 -148l98 148h138l-165 -250l165 -250h-138l-98 148l-98 -148h-138z" />
    <glyph glyph-name="y" unicode="y" horiz-adv-x="490" 
d="M172 13l-172 487h125l120 -346l120 346h125l-177 -500q-3 -8 -12 -34.5t-12.5 -36.5t-13 -33.5t-15.5 -33.5t-18 -29t-22.5 -27.5t-26.5 -21t-33 -17.5t-38.5 -9.5t-46.5 -4.5v110q50 0 82.5 50t14.5 100z" />
    <glyph glyph-name="z" unicode="z" horiz-adv-x="430" 
d="M15 390v110h400v-80l-232 -310h232v-110h-400v80l233 310h-233z" />
    <glyph glyph-name="braceleft" unicode="{" horiz-adv-x="341" 
d="M311 768v-64h-24q-25 0 -33 -13t-8 -44v-174q0 -91 -48 -125q48 -34 48 -125v-174q0 -31 8 -44t33 -13h24v-64h-65q-115 0 -115 121v166q0 50 -18 72t-83 22v78q65 0 83 22t18 72v166q0 121 115 121h65z" />
    <glyph glyph-name="bar" unicode="|" horiz-adv-x="473" 
d="M293 -250v1000h120v-1000h-120z" />
    <glyph glyph-name="braceright" unicode="}" horiz-adv-x="341" 
d="M30 -72v64h24q25 0 33 13t8 44v174q0 91 48 125q-48 34 -48 125v174q0 31 -8 44t-33 13h-24v64h65q115 0 115 -121v-166q0 -50 18 -72t83 -22v-78q-65 0 -83 -22t-18 -72v-166q0 -121 -115 -121h-65z" />
    <glyph glyph-name="asciitilde" unicode="~" horiz-adv-x="466" 
d="M31 300q-5 54 27 98t92 44q40 0 94 -31.5t87 -31.5q51 0 57 46h47q5 -54 -26.5 -98t-90.5 -44q-40 0 -94.5 32t-87.5 32q-52 0 -58 -47h-47z" />
    <glyph glyph-name="exclamdown" unicode="&#xa1;" horiz-adv-x="268" 
d="M163 345q5 -67 15 -167.5t16 -179t9 -167.5h-137q3 89 9 167.5t16 179t15 167.5h57zM208 466q0 -33 -20.5 -53t-53.5 -20t-53.5 20t-20.5 53q0 34 20.5 54t53.5 20t53.5 -20t20.5 -54z" />
    <glyph glyph-name="cent" unicode="&#xa2;" horiz-adv-x="570" 
d="M191 359q0 -69 37.5 -108.5t100.5 -39.5q94 0 127 80h125q-19 -81 -76.5 -131t-143.5 -58v-102h-76v104q-98 14 -156 83t-58 173t58 172t156 82v104h76v-102q85 -8 143 -57.5t76 -128.5h-125q-33 77 -126 77q-63 0 -100.5 -39.5t-37.5 -108.5z" />
    <glyph glyph-name="sterling" unicode="&#xa3;" horiz-adv-x="553" 
d="M523 115v-115h-463v62q51 26 72.5 61t21.5 91v92h-52v75h52v136q0 32 7.5 62.5t26 63.5t58.5 53.5t97 20.5q107 0 180 -80l-62 -79q-4 5 -12.5 13.5t-34.5 22t-53 13.5q-39 0 -60.5 -24t-21.5 -66v-136h163v-75h-163v-83q0 -60 -24 -108h268z" />
    <glyph glyph-name="currency" unicode="&#xa4;" horiz-adv-x="492" 
d="M246 520q48 0 87 -22l69 69l59 -59l-69 -69q20 -37 20 -86t-21 -87l70 -70l-59 -59l-71 71q-37 -21 -85 -21q-49 0 -86 20l-70 -70l-59 59l70 70q-22 39 -22 87q0 49 21 86l-69 69l59 59l68 -68q38 21 88 21zM246 437q-40 0 -62 -22t-22 -62q0 -39 22 -61t62 -22
q39 0 61 22t22 61q0 40 -22 62t-61 22z" />
    <glyph glyph-name="yen" unicode="&#xa5;" horiz-adv-x="651" 
d="M30 700h131l165 -351l164 351h131l-179 -377h79v-75h-115l-18 -38v-29h133v-75h-133v-106h-125v106h-132v75h132v29l-18 38h-114v75h78z" />
    <glyph glyph-name="brokenbar" unicode="&#xa6;" horiz-adv-x="551" 
d="M293 383v367h120v-367h-120zM293 -250v367h120v-367h-120z" />
    <glyph glyph-name="section" unicode="&#xa7;" horiz-adv-x="490" 
d="M158 596q0 -20 31 -32.5t75.5 -22.5t89 -25t75.5 -50t31 -88q0 -70 -53 -112q53 -41 53 -108q0 -73 -54.5 -113.5t-145.5 -40.5q-74 0 -137 24.5t-93 51.5l64 94q30 -28 77.5 -44t91.5 -16q77 0 77 42q0 20 -22.5 33.5t-56 20.5t-72.5 19t-72.5 26.5t-56 45.5t-22.5 75
q0 74 59 111q-59 39 -59 109q0 67 49.5 104.5t138.5 37.5q71 0 132.5 -22.5t99.5 -53.5l-64 -93q-71 59 -172 59q-64 0 -64 -32zM158 380q0 -28 40.5 -42t76.5 -14q30 0 47.5 13t17.5 28q0 22 -38.5 37.5t-80.5 15.5q-35 0 -49 -11.5t-14 -26.5z" />
    <glyph glyph-name="dieresis" unicode="&#xa8;" horiz-adv-x="387" 
d="M30 610q0 33 20.5 53.5t54.5 20.5t55 -20.5t21 -53.5q0 -34 -21 -54.5t-55 -20.5t-54.5 20.5t-20.5 54.5zM206 610q0 33 20.5 53.5t54.5 20.5t55 -20.5t21 -53.5q0 -34 -21 -54.5t-55 -20.5t-54.5 20.5t-20.5 54.5z" />
    <glyph glyph-name="copyright" unicode="&#xa9;" horiz-adv-x="785" 
d="M755 358q0 -161 -100.5 -261.5t-262.5 -100.5q-161 0 -261.5 100.5t-100.5 261.5q0 162 100.5 262t261.5 100q162 0 262.5 -100t100.5 -262zM688 358q0 134 -81 215t-215 81t-215 -81t-81 -215t81 -215t215 -81t215 81t81 215zM186 350q0 97 56 155t151 58q107 0 167 -74
l-60 -41q-40 48 -107 48q-63 0 -98.5 -39.5t-35.5 -106.5q0 -68 35.5 -107t98.5 -39q67 0 107 48l60 -41q-61 -75 -167 -75q-95 0 -151 58.5t-56 155.5z" />
    <glyph glyph-name="ordfeminine" unicode="&#xaa;" horiz-adv-x="420" 
d="M283 384v24q-35 -30 -92 -30q-72 0 -116.5 45.5t-44.5 119.5q0 73 45 118.5t116 45.5q58 0 92 -31v26h76v-318h-76zM107 543q0 -44 23.5 -69.5t63.5 -25.5q41 0 65 25t24 70q0 44 -24 69t-65 25q-39 0 -63 -25t-24 -69z" />
    <glyph glyph-name="guillemotleft" unicode="&#xab;" horiz-adv-x="544" 
d="M443 463l71 -61l-145 -128l145 -128l-71 -61l-209 189zM239 463l71 -61l-145 -128l145 -128l-71 -61l-209 189z" />
    <glyph glyph-name="logicalnot" unicode="&#xac;" horiz-adv-x="586" 
d="M60 296v103h466v-267h-96v164h-370z" />
    <glyph glyph-name="registered" unicode="&#xae;" horiz-adv-x="785" 
d="M755 358q0 -161 -100.5 -261.5t-262.5 -100.5q-161 0 -261.5 100.5t-100.5 261.5q0 162 100.5 262t261.5 100q162 0 262.5 -100t100.5 -262zM688 358q0 134 -81 215t-215 81t-215 -81t-81 -215t81 -215t215 -81t215 81t81 215zM320 166h-70v389h181q62 0 99.5 -38
t37.5 -102q0 -45 -21 -78.5t-57 -48.5l80 -122h-82l-73 111h-95v-111zM320 341h104q34 0 54.5 20.5t20.5 55.5q0 33 -20.5 53.5t-54.5 20.5h-104v-150z" />
    <glyph glyph-name="macron" unicode="&#xaf;" horiz-adv-x="524" 
d="M60 736v103h404v-103h-404z" />
    <glyph glyph-name="degree" unicode="&#xb0;" horiz-adv-x="347" 
d="M173 707q63 0 103.5 -40.5t40.5 -102.5t-40.5 -102.5t-103.5 -40.5q-62 0 -102.5 40.5t-40.5 102.5t40.5 102.5t102.5 40.5zM173 634q-32 0 -50.5 -18.5t-18.5 -51.5q0 -32 18.5 -50.5t50.5 -18.5q33 0 51.5 18.5t18.5 50.5q0 33 -18.5 51.5t-51.5 18.5z" />
    <glyph glyph-name="plusminus" unicode="&#xb1;" horiz-adv-x="574" 
d="M60 277v115h168v170h120v-170h166v-115h-166v-169h-120v169h-168z" />
    <glyph glyph-name="twosuperior" unicode="&#xb2;" horiz-adv-x="353" 
d="M33 430q2 47 24.5 82.5t53 56.5t60.5 39t50.5 42t20.5 55q0 26 -14.5 44t-47.5 18q-51 0 -111 -50l-39 63q74 61 152 61q66 0 103.5 -39.5t37.5 -98.5q0 -40 -18.5 -72t-46.5 -53t-56.5 -39t-53.5 -39t-33 -43h203v-74h-285v47z" />
    <glyph glyph-name="threesuperior" unicode="&#xb3;" horiz-adv-x="389" 
d="M102 665h12q75 1 108 14t33 43q0 46 -64 46q-61 0 -122 -51l-39 64q74 63 161 63q69 0 107 -33t38 -87q0 -63 -54 -97q77 -42 77 -122q0 -60 -45.5 -97t-136.5 -37q-77 0 -147 36l30 69q57 -30 116 -30q101 0 101 65q0 79 -175 79v75z" />
    <glyph glyph-name="acute" unicode="&#xb4;" horiz-adv-x="203" 
d="M30 548q55 77 61 145h82q-10 -42 -40 -81.5t-62 -63.5h-41z" />
    <glyph glyph-name="paragraph" unicode="&#xb6;" horiz-adv-x="631" 
d="M345 -121v365h-35q-112 0 -181 69t-69 181v6q0 112 69 181t181 69h261v-871h-70v812h-86v-812h-70z" />
    <glyph glyph-name="periodcentered" unicode="&#xb7;" horiz-adv-x="268" 
d="M60 348q0 33 20.5 53t53.5 20t53.5 -20t20.5 -53q0 -34 -20.5 -54t-53.5 -20t-53.5 20t-20.5 54z" />
    <glyph glyph-name="cedilla" unicode="&#xb8;" horiz-adv-x="248" 
d="M155 24l-41 -83q41 2 72.5 -17t31.5 -64q0 -46 -35 -67.5t-91 -21.5q-30 0 -62 6l9 39q93 -6 93 48q0 24 -17.5 35.5t-35.5 10.5l-18 -1l56 124z" />
    <glyph glyph-name="onesuperior" unicode="&#xb9;" horiz-adv-x="224" 
d="M83 383v338q-22 -13 -54 -16v66q55 14 70 59h64v-447h-80z" />
    <glyph glyph-name="ordmasculine" unicode="&#xba;" horiz-adv-x="412" 
d="M31 538q0 79 48.5 127t127.5 48t126.5 -48t47.5 -127t-47.5 -127t-126.5 -48t-127.5 48t-48.5 127zM112 538q0 -47 26 -74t68 -27q43 0 68.5 27t25.5 74t-25.5 73.5t-68.5 26.5t-68.5 -26.5t-25.5 -73.5z" />
    <glyph glyph-name="guillemotright" unicode="&#xbb;" horiz-adv-x="544" 
d="M101 85l-71 61l145 128l-145 128l71 61l209 -189zM305 85l-71 61l145 128l-145 128l71 61l209 -189z" />
    <glyph glyph-name="onequarter" unicode="&#xbc;" horiz-adv-x="714" 
d="M84 253v338q-22 -13 -54 -16v66q55 14 70 59h64v-447h-80zM85 0l392 700h107l-392 -700h-107zM573 0v84h-198v58l213 303h65v-288h31v-73h-31v-84h-80zM475 157h98v140z" />
    <glyph glyph-name="onehalf" unicode="&#xbd;" horiz-adv-x="796" 
d="M84 253v338q-22 -13 -54 -16v66q55 14 70 59h64v-447h-80zM85 0l392 700h107l-392 -700h-107zM476 47q2 47 24.5 82.5t53 56.5t60.5 39t50.5 42t20.5 55q0 26 -14.5 44t-47.5 18q-51 0 -111 -50l-39 63q74 61 152 61q66 0 103.5 -39.5t37.5 -98.5q0 -40 -18.5 -72
t-46.5 -53t-56.5 -39t-53.5 -39t-33 -43h203v-74h-285v47z" />
    <glyph glyph-name="threequarters" unicode="&#xbe;" horiz-adv-x="882" 
d="M102 535h12q74 1 107.5 14t33.5 43q0 46 -64 46q-61 0 -122 -51l-39 64q75 62 161 62q69 0 107 -32.5t38 -86.5q0 -63 -55 -97q78 -42 78 -122q0 -60 -45.5 -97t-136.5 -37q-77 0 -147 36l30 69q57 -30 116 -30q101 0 101 65q0 79 -175 79v75zM253 0l392 700h107
l-392 -700h-107zM741 0v84h-198v58l213 303h65v-288h31v-73h-31v-84h-80zM643 157h98v140z" />
    <glyph glyph-name="questiondown" unicode="&#xbf;" horiz-adv-x="465" 
d="M236 -65q76 0 115 75l84 -72q-74 -117 -207 -117q-95 0 -146.5 56t-51.5 132q0 43 18.5 79t45.5 63l54 54t45.5 65.5t18.5 83.5h65q0 -51 -13.5 -93t-32.5 -70t-37.5 -52.5t-32 -53t-13.5 -58.5q0 -40 21.5 -66t66.5 -26zM318 467q0 -33 -20.5 -53t-53.5 -20t-53.5 20
t-20.5 53q0 34 20.5 54t53.5 20t53.5 -20t20.5 -54z" />
    <glyph glyph-name="Agrave" unicode="&#xc0;" horiz-adv-x="611" 
d="M0 0l240 700h131l240 -700h-131l-58 185h-233l-58 -185h-131zM225 300h160l-80 254zM377 748h-41q-32 24 -62 63.5t-40 81.5h82q6 -68 61 -145z" />
    <glyph glyph-name="Aacute" unicode="&#xc1;" horiz-adv-x="611" 
d="M0 0l240 700h131l240 -700h-131l-58 185h-233l-58 -185h-131zM225 300h160l-80 254zM234 748q55 77 61 145h82q-10 -42 -40 -81.5t-62 -63.5h-41z" />
    <glyph glyph-name="Acircumflex" unicode="&#xc2;" horiz-adv-x="611" 
d="M188 738q55 77 61 145h113q6 -68 61 -145h-41q-44 31 -77 86q-34 -56 -76 -86h-41zM0 0l240 700h131l240 -700h-131l-58 185h-233l-58 -185h-131zM225 300h160l-80 254z" />
    <glyph glyph-name="Atilde" unicode="&#xc3;" horiz-adv-x="611" 
d="M159 747q-3 53 19.5 92.5t66.5 39.5q30 0 68.5 -26.5t61.5 -26.5q40 0 44 46h34q3 -53 -19.5 -92.5t-66.5 -39.5q-29 0 -68 27t-63 27q-39 0 -43 -47h-34zM0 0l240 700h131l240 -700h-131l-58 185h-233l-58 -185h-131zM225 300h160l-80 254z" />
    <glyph glyph-name="Adieresis" unicode="&#xc4;" horiz-adv-x="611" 
d="M142 810q0 33 20.5 53.5t54.5 20.5t55 -20.5t21 -53.5q0 -34 -21 -54.5t-55 -20.5t-54.5 20.5t-20.5 54.5zM318 810q0 33 20.5 53.5t54.5 20.5t55 -20.5t21 -53.5q0 -34 -21 -54.5t-55 -20.5t-54.5 20.5t-20.5 54.5zM0 0l240 700h131l240 -700h-131l-58 185h-233
l-58 -185h-131zM225 300h160l-80 254z" />
    <glyph glyph-name="Aring" unicode="&#xc5;" horiz-adv-x="611" 
d="M305 889q35 0 57.5 -22t22.5 -57t-22.5 -57.5t-57.5 -22.5t-57 22.5t-22 57.5q0 34 22 56.5t57 22.5zM305 846q-17 0 -27 -9.5t-10 -26.5q0 -37 37 -37q38 0 38 37q0 36 -38 36zM0 0l240 700h131l240 -700h-131l-58 185h-233l-58 -185h-131zM225 300h160l-80 254z" />
    <glyph glyph-name="AE" unicode="&#xc6;" horiz-adv-x="796" 
d="M305 0v185h-116l-58 -185h-131l240 700h541v-115h-351v-159h289v-115h-289v-197h351v-115zM305 554l-80 -254h80v254z" />
    <glyph glyph-name="Ccedilla" unicode="&#xc7;" horiz-adv-x="666" 
d="M15 350q0 165 95.5 264t257.5 99q181 0 283 -127l-102 -70q-66 82 -181 82q-107 0 -167.5 -66.5t-60.5 -181.5t60.5 -181.5t167.5 -66.5q115 0 181 82l102 -70q-102 -127 -283 -127q-15 0 -26 -6l-9 -17q41 2 72.5 -17t31.5 -64q0 -46 -35 -67.5t-91 -21.5q-31 0 -62 6
l9 39q93 -6 93 48q0 24 -17.5 35.5t-35.5 10.5l-18 -1l27 59q-136 19 -214 115t-78 244z" />
    <glyph glyph-name="Egrave" unicode="&#xc8;" horiz-adv-x="521" 
d="M30 0v700h476v-115h-351v-159h289v-115h-289v-197h351v-115zM332 748h-41q-32 24 -62 63.5t-40 81.5h82q6 -68 61 -145z" />
    <glyph glyph-name="Eacute" unicode="&#xc9;" horiz-adv-x="521" 
d="M30 0v700h476v-115h-351v-159h289v-115h-289v-197h351v-115zM189 748q55 77 61 145h82q-10 -42 -40 -81.5t-62 -63.5h-41z" />
    <glyph glyph-name="Ecircumflex" unicode="&#xca;" horiz-adv-x="521" 
d="M143 738q55 77 61 145h113q6 -68 61 -145h-41q-44 31 -77 86q-34 -56 -76 -86h-41zM30 0v700h476v-115h-351v-159h289v-115h-289v-197h351v-115z" />
    <glyph glyph-name="Edieresis" unicode="&#xcb;" horiz-adv-x="521" 
d="M97 810q0 33 20.5 53.5t54.5 20.5t55 -20.5t21 -53.5q0 -34 -21 -54.5t-55 -20.5t-54.5 20.5t-20.5 54.5zM273 810q0 33 20.5 53.5t54.5 20.5t55 -20.5t21 -53.5q0 -34 -21 -54.5t-55 -20.5t-54.5 20.5t-20.5 54.5zM30 0v700h476v-115h-351v-159h289v-115h-289v-197h351
v-115z" />
    <glyph glyph-name="Igrave" unicode="&#xcc;" horiz-adv-x="185" 
d="M30 0v700h125v-700h-125zM164 748h-41q-32 24 -62 63.5t-40 81.5h82q6 -68 61 -145z" />
    <glyph glyph-name="Iacute" unicode="&#xcd;" horiz-adv-x="185" 
d="M30 0v700h125v-700h-125zM21 748q55 77 61 145h82q-10 -42 -40 -81.5t-62 -63.5h-41z" />
    <glyph glyph-name="Icircumflex" unicode="&#xce;" horiz-adv-x="185" 
d="M-25 738q55 77 61 145h113q6 -68 61 -145h-41q-44 31 -77 86q-34 -56 -76 -86h-41zM30 0v700h125v-700h-125z" />
    <glyph glyph-name="Idieresis" unicode="&#xcf;" horiz-adv-x="185" 
d="M-71 810q0 33 20.5 53.5t54.5 20.5t55 -20.5t21 -53.5q0 -34 -21 -54.5t-55 -20.5t-54.5 20.5t-20.5 54.5zM105 810q0 33 20.5 53.5t54.5 20.5t55 -20.5t21 -53.5q0 -34 -21 -54.5t-55 -20.5t-54.5 20.5t-20.5 54.5zM30 0v700h125v-700h-125z" />
    <glyph glyph-name="Eth" unicode="&#xd0;" horiz-adv-x="647" 
d="M30 0v265h-50v90h50v345h265q155 0 246 -94.5t91 -251.5q0 -162 -90.5 -258t-246.5 -96h-265zM155 115h128q104 0 164 63.5t60 169.5q0 109 -60 173t-164 64h-128v-230h74v-90h-74v-150z" />
    <glyph glyph-name="Ntilde" unicode="&#xd1;" horiz-adv-x="587" 
d="M147 747q-3 53 19.5 92.5t66.5 39.5q30 0 68.5 -26.5t61.5 -26.5q40 0 44 46h34q3 -53 -19.5 -92.5t-66.5 -39.5q-29 0 -68 27t-63 27q-39 0 -43 -47h-34zM422 0l-267 478v-478h-125v700h135l267 -478v478h125v-700h-135z" />
    <glyph glyph-name="Ograve" unicode="&#xd2;" horiz-adv-x="737" 
d="M15 350q0 165 95.5 264t257.5 99q163 0 258.5 -99t95.5 -264t-95.5 -264.5t-258.5 -99.5q-162 0 -257.5 99.5t-95.5 264.5zM140 350q0 -116 60.5 -182.5t167.5 -66.5t168 67t61 182t-61 181.5t-168 66.5t-167.5 -66.5t-60.5 -181.5zM440 748h-41q-32 24 -62 63.5
t-40 81.5h82q6 -68 61 -145z" />
    <glyph glyph-name="Oacute" unicode="&#xd3;" horiz-adv-x="737" 
d="M15 350q0 165 95.5 264t257.5 99q163 0 258.5 -99t95.5 -264t-95.5 -264.5t-258.5 -99.5q-162 0 -257.5 99.5t-95.5 264.5zM140 350q0 -116 60.5 -182.5t167.5 -66.5t168 67t61 182t-61 181.5t-168 66.5t-167.5 -66.5t-60.5 -181.5zM297 748q55 77 61 145h82
q-10 -42 -40 -81.5t-62 -63.5h-41z" />
    <glyph glyph-name="Ocircumflex" unicode="&#xd4;" horiz-adv-x="737" 
d="M251 738q55 77 61 145h113q6 -68 61 -145h-41q-44 31 -77 86q-34 -56 -76 -86h-41zM15 350q0 165 95.5 264t257.5 99q163 0 258.5 -99t95.5 -264t-95.5 -264.5t-258.5 -99.5q-162 0 -257.5 99.5t-95.5 264.5zM140 350q0 -116 60.5 -182.5t167.5 -66.5t168 67t61 182
t-61 181.5t-168 66.5t-167.5 -66.5t-60.5 -181.5z" />
    <glyph glyph-name="Otilde" unicode="&#xd5;" horiz-adv-x="737" 
d="M222 747q-3 53 19.5 92.5t66.5 39.5q30 0 68.5 -26.5t61.5 -26.5q40 0 44 46h34q3 -53 -19.5 -92.5t-66.5 -39.5q-29 0 -68 27t-63 27q-39 0 -43 -47h-34zM15 350q0 165 95.5 264t257.5 99q163 0 258.5 -99t95.5 -264t-95.5 -264.5t-258.5 -99.5q-162 0 -257.5 99.5
t-95.5 264.5zM140 350q0 -116 60.5 -182.5t167.5 -66.5t168 67t61 182t-61 181.5t-168 66.5t-167.5 -66.5t-60.5 -181.5z" />
    <glyph glyph-name="Odieresis" unicode="&#xd6;" horiz-adv-x="737" 
d="M205 810q0 33 20.5 53.5t54.5 20.5t55 -20.5t21 -53.5q0 -34 -21 -54.5t-55 -20.5t-54.5 20.5t-20.5 54.5zM381 810q0 33 20.5 53.5t54.5 20.5t55 -20.5t21 -53.5q0 -34 -21 -54.5t-55 -20.5t-54.5 20.5t-20.5 54.5zM15 350q0 165 95.5 264t257.5 99q163 0 258.5 -99
t95.5 -264t-95.5 -264.5t-258.5 -99.5q-162 0 -257.5 99.5t-95.5 264.5zM140 350q0 -116 60.5 -182.5t167.5 -66.5t168 67t61 182t-61 181.5t-168 66.5t-167.5 -66.5t-60.5 -181.5z" />
    <glyph glyph-name="multiply" unicode="&#xd7;" horiz-adv-x="550" 
d="M60 471l78 78l137 -137l137 137l78 -78l-137 -137l137 -137l-78 -78l-137 137l-137 -137l-78 78l137 137z" />
    <glyph glyph-name="Oslash" unicode="&#xd8;" horiz-adv-x="737" 
d="M15 350q0 165 95.5 264t257.5 99q103 0 180 -41l20 28h107l-57 -78q104 -99 104 -272q0 -165 -95.5 -264.5t-258.5 -99.5q-103 0 -179 41l-19 -27h-107l55 77q-103 100 -103 273zM140 350q0 -106 51 -171l286 396q-48 23 -109 23q-107 0 -167.5 -66.5t-60.5 -181.5z
M545 521l-286 -397q48 -23 109 -23q107 0 168 67t61 182q0 105 -52 171z" />
    <glyph glyph-name="Ugrave" unicode="&#xd9;" horiz-adv-x="619" 
d="M307 -13q-128 0 -202.5 70t-74.5 190v453h125v-462q0 -64 40.5 -100t112.5 -36q74 0 115 35.5t41 100.5v462h125v-453q0 -120 -74.5 -190t-202.5 -70h-5zM381 748h-41q-32 24 -62 63.5t-40 81.5h82q6 -68 61 -145z" />
    <glyph glyph-name="Uacute" unicode="&#xda;" horiz-adv-x="619" 
d="M307 -13q-128 0 -202.5 70t-74.5 190v453h125v-462q0 -64 40.5 -100t112.5 -36q74 0 115 35.5t41 100.5v462h125v-453q0 -120 -74.5 -190t-202.5 -70h-5zM238 748q55 77 61 145h82q-10 -42 -40 -81.5t-62 -63.5h-41z" />
    <glyph glyph-name="Ucircumflex" unicode="&#xdb;" horiz-adv-x="619" 
d="M192 738q55 77 61 145h113q6 -68 61 -145h-41q-44 31 -77 86q-34 -56 -76 -86h-41zM307 -13q-128 0 -202.5 70t-74.5 190v453h125v-462q0 -64 40.5 -100t112.5 -36q74 0 115 35.5t41 100.5v462h125v-453q0 -120 -74.5 -190t-202.5 -70h-5z" />
    <glyph glyph-name="Udieresis" unicode="&#xdc;" horiz-adv-x="619" 
d="M146 810q0 33 20.5 53.5t54.5 20.5t55 -20.5t21 -53.5q0 -34 -21 -54.5t-55 -20.5t-54.5 20.5t-20.5 54.5zM322 810q0 33 20.5 53.5t54.5 20.5t55 -20.5t21 -53.5q0 -34 -21 -54.5t-55 -20.5t-54.5 20.5t-20.5 54.5zM307 -13q-128 0 -202.5 70t-74.5 190v453h125v-462
q0 -64 40.5 -100t112.5 -36q74 0 115 35.5t41 100.5v462h125v-453q0 -120 -74.5 -190t-202.5 -70h-5z" />
    <glyph glyph-name="Yacute" unicode="&#xdd;" horiz-adv-x="591" 
d="M0 700h131l165 -351l164 351h131l-233 -490v-210h-125v210zM224 748q55 77 61 145h82q-10 -42 -40 -81.5t-62 -63.5h-41z" />
    <glyph glyph-name="germandbls" unicode="&#xdf;" horiz-adv-x="617" 
d="M30 422q0 125 76.5 201.5t201.5 76.5h58q85 0 135.5 -51.5t50.5 -133.5q0 -95 -71 -133q54 -18 87.5 -62.5t33.5 -114.5q0 -92 -65.5 -155t-172.5 -63q-76 0 -158 37v129q74 -51 143 -51q56 0 92 33t36 79t-27.5 73.5t-71.5 27.5h-172v115h144q34 0 55.5 21t21.5 56
q0 36 -21 57t-56 21h-27q-80 0 -124 -44t-44 -124v-417h-125v422z" />
    <glyph glyph-name="agrave" unicode="&#xe0;" horiz-adv-x="562" 
d="M273 507q116 0 187.5 -71.5t71.5 -187.5v-248h-120v48q-44 -57 -148 -57q-109 0 -179 71.5t-70 187.5q0 115 71 186t187 71zM412 249q0 69 -37.5 108.5t-100.5 39.5q-64 0 -101.5 -39.5t-37.5 -108.5t37.5 -108.5t101.5 -39.5q63 0 100.5 39.5t37.5 108.5zM353 548h-41
q-32 24 -62 63.5t-40 81.5h82q6 -68 61 -145z" />
    <glyph glyph-name="aacute" unicode="&#xe1;" horiz-adv-x="562" 
d="M273 507q116 0 187.5 -71.5t71.5 -187.5v-248h-120v48q-44 -57 -148 -57q-109 0 -179 71.5t-70 187.5q0 115 71 186t187 71zM412 249q0 69 -37.5 108.5t-100.5 39.5q-64 0 -101.5 -39.5t-37.5 -108.5t37.5 -108.5t101.5 -39.5q63 0 100.5 39.5t37.5 108.5zM210 548
q55 77 61 145h82q-10 -42 -40 -81.5t-62 -63.5h-41z" />
    <glyph glyph-name="acircumflex" unicode="&#xe2;" horiz-adv-x="562" 
d="M164 538q55 77 61 145h113q6 -68 61 -145h-41q-44 31 -77 86q-34 -56 -76 -86h-41zM273 507q116 0 187.5 -71.5t71.5 -187.5v-248h-120v48q-44 -57 -148 -57q-109 0 -179 71.5t-70 187.5q0 115 71 186t187 71zM412 249q0 69 -37.5 108.5t-100.5 39.5q-64 0 -101.5 -39.5
t-37.5 -108.5t37.5 -108.5t101.5 -39.5q63 0 100.5 39.5t37.5 108.5z" />
    <glyph glyph-name="atilde" unicode="&#xe3;" horiz-adv-x="562" 
d="M134 547q-3 54 19.5 93t67.5 39q29 0 67.5 -26.5t62.5 -26.5q39 0 43 46h34q3 -53 -19.5 -92.5t-66.5 -39.5q-29 0 -68 27t-62 27q-40 0 -44 -47h-34zM273 507q116 0 187.5 -71.5t71.5 -187.5v-248h-120v48q-44 -57 -148 -57q-109 0 -179 71.5t-70 187.5q0 115 71 186
t187 71zM412 249q0 69 -37.5 108.5t-100.5 39.5q-64 0 -101.5 -39.5t-37.5 -108.5t37.5 -108.5t101.5 -39.5q63 0 100.5 39.5t37.5 108.5z" />
    <glyph glyph-name="adieresis" unicode="&#xe4;" horiz-adv-x="562" 
d="M118 610q0 33 20.5 53.5t54.5 20.5t55 -20.5t21 -53.5q0 -34 -21 -54.5t-55 -20.5t-54.5 20.5t-20.5 54.5zM294 610q0 33 20.5 53.5t54.5 20.5t55 -20.5t21 -53.5q0 -34 -21 -54.5t-55 -20.5t-54.5 20.5t-20.5 54.5zM273 507q116 0 187.5 -71.5t71.5 -187.5v-248h-120v48
q-44 -57 -148 -57q-109 0 -179 71.5t-70 187.5q0 115 71 186t187 71zM412 249q0 69 -37.5 108.5t-100.5 39.5q-64 0 -101.5 -39.5t-37.5 -108.5t37.5 -108.5t101.5 -39.5q63 0 100.5 39.5t37.5 108.5z" />
    <glyph glyph-name="aring" unicode="&#xe5;" horiz-adv-x="562" 
d="M281 689q35 0 57.5 -22t22.5 -57t-22.5 -57.5t-57.5 -22.5t-57 22.5t-22 57.5q0 34 22 56.5t57 22.5zM281 646q-17 0 -27 -9.5t-10 -26.5q0 -37 37 -37q38 0 38 37q0 36 -38 36zM273 507q116 0 187.5 -71.5t71.5 -187.5v-248h-120v48q-44 -57 -148 -57q-109 0 -179 71.5
t-70 187.5q0 115 71 186t187 71zM412 249q0 69 -37.5 108.5t-100.5 39.5q-64 0 -101.5 -39.5t-37.5 -108.5t37.5 -108.5t101.5 -39.5q63 0 100.5 39.5t37.5 108.5z" />
    <glyph glyph-name="ae" unicode="&#xe6;" horiz-adv-x="944" 
d="M273 507q126 0 199 -83q72 83 199 83q116 0 187 -70.5t71 -186.5q0 -14 -2 -40h-391q10 -52 45.5 -80.5t88.5 -28.5q76 0 113 54h131q-25 -76 -89 -120t-154 -44q-79 0 -139 34v-25h-120v48q-44 -57 -148 -57q-109 0 -179 71.5t-70 187.5q0 115 71 186t187 71zM412 249
q0 69 -37.5 108.5t-100.5 39.5q-64 0 -101.5 -39.5t-37.5 -108.5t37.5 -108.5t101.5 -39.5q63 0 100.5 39.5t37.5 108.5zM545 320h251q-33 77 -126 77q-92 0 -125 -77z" />
    <glyph glyph-name="ccedilla" unicode="&#xe7;" horiz-adv-x="540" 
d="M135 249q0 -69 37.5 -108.5t100.5 -39.5q94 0 127 80h125q-20 -88 -87 -139t-164 -51q-7 0 -13 -7l-9 -17q41 2 72.5 -16.5t31.5 -63.5q0 -47 -35 -68.5t-91 -21.5q-30 0 -62 6l9 39q93 -6 93 49q0 24 -18 35t-36 10l-17 -1l27 60q-96 14 -153.5 83t-57.5 172
q0 115 71.5 186t187.5 71q97 0 163.5 -50.5t86.5 -136.5h-125q-33 77 -126 77q-63 0 -100.5 -39.5t-37.5 -108.5z" />
    <glyph glyph-name="egrave" unicode="&#xe8;" 
d="M149 320h251q-33 77 -126 77q-92 0 -125 -77zM274 101q76 0 113 54h131q-25 -76 -89 -120t-154 -44q-116 0 -187.5 71.5t-71.5 187.5q0 115 71.5 186t187.5 71t187 -70.5t71 -186.5q0 -14 -2 -40h-391q10 -52 45.5 -80.5t88.5 -28.5zM346 548h-41q-32 24 -62 63.5
t-40 81.5h82q6 -68 61 -145z" />
    <glyph glyph-name="eacute" unicode="&#xe9;" 
d="M149 320h251q-33 77 -126 77q-92 0 -125 -77zM274 101q76 0 113 54h131q-25 -76 -89 -120t-154 -44q-116 0 -187.5 71.5t-71.5 187.5q0 115 71.5 186t187.5 71t187 -70.5t71 -186.5q0 -14 -2 -40h-391q10 -52 45.5 -80.5t88.5 -28.5zM203 548q55 77 61 145h82
q-10 -42 -40 -81.5t-62 -63.5h-41z" />
    <glyph glyph-name="ecircumflex" unicode="&#xea;" 
d="M157 538q55 77 61 145h113q6 -68 61 -145h-41q-44 31 -77 86q-34 -56 -76 -86h-41zM149 320h251q-33 77 -126 77q-92 0 -125 -77zM274 101q76 0 113 54h131q-25 -76 -89 -120t-154 -44q-116 0 -187.5 71.5t-71.5 187.5q0 115 71.5 186t187.5 71t187 -70.5t71 -186.5
q0 -14 -2 -40h-391q10 -52 45.5 -80.5t88.5 -28.5z" />
    <glyph glyph-name="edieresis" unicode="&#xeb;" 
d="M111 610q0 33 20.5 53.5t54.5 20.5t55 -20.5t21 -53.5q0 -34 -21 -54.5t-55 -20.5t-54.5 20.5t-20.5 54.5zM287 610q0 33 20.5 53.5t54.5 20.5t55 -20.5t21 -53.5q0 -34 -21 -54.5t-55 -20.5t-54.5 20.5t-20.5 54.5zM149 320h251q-33 77 -126 77q-92 0 -125 -77zM274 101
q76 0 113 54h131q-25 -76 -89 -120t-154 -44q-116 0 -187.5 71.5t-71.5 187.5q0 115 71.5 186t187.5 71t187 -70.5t71 -186.5q0 -14 -2 -40h-391q10 -52 45.5 -80.5t88.5 -28.5z" />
    <glyph glyph-name="igrave" unicode="&#xec;" horiz-adv-x="180" 
d="M30 0v500h120v-500h-120zM162 548h-41q-32 24 -62 63.5t-40 81.5h82q6 -68 61 -145z" />
    <glyph glyph-name="iacute" unicode="&#xed;" horiz-adv-x="180" 
d="M30 0v500h120v-500h-120zM19 548q55 77 61 145h82q-10 -42 -40 -81.5t-62 -63.5h-41z" />
    <glyph glyph-name="icircumflex" unicode="&#xee;" horiz-adv-x="180" 
d="M-28 538q56 76 62 145h113q6 -68 61 -145h-41q-44 31 -77 86q-34 -56 -76 -86h-42zM30 0v500h120v-500h-120z" />
    <glyph glyph-name="idieresis" unicode="&#xef;" horiz-adv-x="180" 
d="M-74 610q0 33 21 53.5t55 20.5t55 -20.5t21 -53.5q0 -34 -21 -54.5t-55 -20.5t-55 20.5t-21 54.5zM103 610q0 33 20.5 53.5t54.5 20.5t55 -20.5t21 -53.5q0 -34 -21 -54.5t-55 -20.5t-54.5 20.5t-20.5 54.5zM30 0v500h120v-500h-120z" />
    <glyph glyph-name="ntilde" unicode="&#xf1;" horiz-adv-x="520" 
d="M113 547q-3 54 19.5 93t67.5 39q29 0 67.5 -26.5t62.5 -26.5q39 0 43 46h34q3 -53 -19.5 -92.5t-66.5 -39.5q-29 0 -68 27t-62 27q-40 0 -44 -47h-34zM260 509q59 0 105 -20.5t72 -53t39.5 -67.5t13.5 -70v-298h-120v295q0 50 -31.5 76.5t-78.5 26.5t-78.5 -26.5
t-31.5 -76.5v-295h-120v298q0 35 13.5 70t39.5 67.5t72 53t105 20.5z" />
    <glyph glyph-name="ograve" unicode="&#xf2;" 
d="M16 250q0 115 71.5 186t187.5 71t187 -70.5t71 -186.5t-71 -187.5t-187 -71.5t-187.5 71.5t-71.5 187.5zM136 249q0 -69 37.5 -108.5t100.5 -39.5q64 0 101.5 39.5t37.5 108.5t-37.5 108.5t-101.5 39.5q-63 0 -100.5 -39.5t-37.5 -108.5zM346 548h-41q-32 24 -62 63.5
t-40 81.5h82q6 -68 61 -145z" />
    <glyph glyph-name="oacute" unicode="&#xf3;" 
d="M16 250q0 115 71.5 186t187.5 71t187 -70.5t71 -186.5t-71 -187.5t-187 -71.5t-187.5 71.5t-71.5 187.5zM136 249q0 -69 37.5 -108.5t100.5 -39.5q64 0 101.5 39.5t37.5 108.5t-37.5 108.5t-101.5 39.5q-63 0 -100.5 -39.5t-37.5 -108.5zM203 548q55 77 61 145h82
q-10 -42 -40 -81.5t-62 -63.5h-41z" />
    <glyph glyph-name="ocircumflex" unicode="&#xf4;" 
d="M157 538q55 77 61 145h113q6 -68 61 -145h-41q-44 31 -77 86q-34 -56 -76 -86h-41zM16 250q0 115 71.5 186t187.5 71t187 -70.5t71 -186.5t-71 -187.5t-187 -71.5t-187.5 71.5t-71.5 187.5zM136 249q0 -69 37.5 -108.5t100.5 -39.5q64 0 101.5 39.5t37.5 108.5
t-37.5 108.5t-101.5 39.5q-63 0 -100.5 -39.5t-37.5 -108.5z" />
    <glyph glyph-name="otilde" unicode="&#xf5;" 
d="M128 547q-3 53 19.5 92.5t66.5 39.5q30 0 68.5 -26.5t61.5 -26.5q40 0 44 46h34q3 -53 -19.5 -92.5t-66.5 -39.5q-29 0 -68 27t-63 27q-39 0 -43 -47h-34zM16 250q0 115 71.5 186t187.5 71t187 -70.5t71 -186.5t-71 -187.5t-187 -71.5t-187.5 71.5t-71.5 187.5zM136 249
q0 -69 37.5 -108.5t100.5 -39.5q64 0 101.5 39.5t37.5 108.5t-37.5 108.5t-101.5 39.5q-63 0 -100.5 -39.5t-37.5 -108.5z" />
    <glyph glyph-name="odieresis" unicode="&#xf6;" 
d="M111 610q0 33 20.5 53.5t54.5 20.5t55 -20.5t21 -53.5q0 -34 -21 -54.5t-55 -20.5t-54.5 20.5t-20.5 54.5zM287 610q0 33 20.5 53.5t54.5 20.5t55 -20.5t21 -53.5q0 -34 -21 -54.5t-55 -20.5t-54.5 20.5t-20.5 54.5zM16 250q0 115 71.5 186t187.5 71t187 -70.5t71 -186.5
t-71 -187.5t-187 -71.5t-187.5 71.5t-71.5 187.5zM136 249q0 -69 37.5 -108.5t100.5 -39.5q64 0 101.5 39.5t37.5 108.5t-37.5 108.5t-101.5 39.5q-63 0 -100.5 -39.5t-37.5 -108.5z" />
    <glyph glyph-name="divide" unicode="&#xf7;" horiz-adv-x="572" 
d="M208 503q0 33 20.5 53t53.5 20t53.5 -20t20.5 -53q0 -34 -20.5 -54t-53.5 -20t-53.5 20t-20.5 54zM60 277v115h444v-115h-444zM208 168q0 33 20.5 53t53.5 20t53.5 -20t20.5 -53q0 -34 -20.5 -54t-53.5 -20t-53.5 20t-20.5 54z" />
    <glyph glyph-name="oslash" unicode="&#xf8;" 
d="M136 249q0 -61 29 -98l178 231q-30 15 -69 15q-63 0 -100.5 -39.5t-37.5 -108.5zM384 348l-179 -231q29 -16 69 -16q64 0 101.5 39.5t37.5 108.5q0 61 -29 99zM16 250q0 115 71.5 186t187.5 71q79 0 138 -34l20 26h67l-44 -57q77 -71 77 -192q0 -116 -71 -187.5
t-187 -71.5q-81 0 -140 35l-20 -26h-67l45 57q-77 72 -77 193z" />
    <glyph glyph-name="ugrave" unicode="&#xf9;" horiz-adv-x="520" 
d="M260 -9q-59 0 -105 20.5t-72 53t-39.5 67.5t-13.5 70v298h120v-295q0 -50 31.5 -76.5t78.5 -26.5t78.5 26.5t31.5 76.5v295h120v-298q0 -35 -13.5 -70t-39.5 -67.5t-72 -53t-105 -20.5zM332 548h-41q-32 24 -62 63.5t-40 81.5h82q6 -68 61 -145z" />
    <glyph glyph-name="uacute" unicode="&#xfa;" horiz-adv-x="520" 
d="M260 -9q-59 0 -105 20.5t-72 53t-39.5 67.5t-13.5 70v298h120v-295q0 -50 31.5 -76.5t78.5 -26.5t78.5 26.5t31.5 76.5v295h120v-298q0 -35 -13.5 -70t-39.5 -67.5t-72 -53t-105 -20.5zM189 548q55 77 61 145h82q-10 -42 -40 -81.5t-62 -63.5h-41z" />
    <glyph glyph-name="ucircumflex" unicode="&#xfb;" horiz-adv-x="520" 
d="M143 538q55 77 61 145h113q6 -68 61 -145h-41q-44 31 -77 86q-34 -56 -76 -86h-41zM260 -9q-59 0 -105 20.5t-72 53t-39.5 67.5t-13.5 70v298h120v-295q0 -50 31.5 -76.5t78.5 -26.5t78.5 26.5t31.5 76.5v295h120v-298q0 -35 -13.5 -70t-39.5 -67.5t-72 -53t-105 -20.5z
" />
    <glyph glyph-name="udieresis" unicode="&#xfc;" horiz-adv-x="520" 
d="M97 610q0 33 20.5 53.5t54.5 20.5t55 -20.5t21 -53.5q0 -34 -21 -54.5t-55 -20.5t-54.5 20.5t-20.5 54.5zM273 610q0 33 20.5 53.5t54.5 20.5t55 -20.5t21 -53.5q0 -34 -21 -54.5t-55 -20.5t-54.5 20.5t-20.5 54.5zM260 -9q-59 0 -105 20.5t-72 53t-39.5 67.5t-13.5 70
v298h120v-295q0 -50 31.5 -76.5t78.5 -26.5t78.5 26.5t31.5 76.5v295h120v-298q0 -35 -13.5 -70t-39.5 -67.5t-72 -53t-105 -20.5z" />
    <glyph glyph-name="yacute" unicode="&#xfd;" horiz-adv-x="490" 
d="M172 13l-172 487h125l120 -346l120 346h125l-177 -500q-3 -8 -12 -34.5t-12.5 -36.5t-13 -33.5t-15.5 -33.5t-18 -29t-22.5 -27.5t-26.5 -21t-33 -17.5t-38.5 -9.5t-46.5 -4.5v110q50 0 82.5 50t14.5 100zM174 548q55 77 61 145h82q-10 -42 -40 -81.5t-62 -63.5h-41z" />
    <glyph glyph-name="ydieresis" unicode="&#xff;" horiz-adv-x="490" 
d="M82 610q0 33 20.5 53.5t54.5 20.5t55 -20.5t21 -53.5q0 -34 -21 -54.5t-55 -20.5t-54.5 20.5t-20.5 54.5zM258 610q0 33 20.5 53.5t54.5 20.5t55 -20.5t21 -53.5q0 -34 -21 -54.5t-55 -20.5t-54.5 20.5t-20.5 54.5zM172 13l-172 487h125l120 -346l120 346h125l-177 -500
q-3 -8 -12 -34.5t-12.5 -36.5t-13 -33.5t-15.5 -33.5t-18 -29t-22.5 -27.5t-26.5 -21t-33 -17.5t-38.5 -9.5t-46.5 -4.5v110q50 0 82.5 50t14.5 100z" />
    <glyph glyph-name="Dcroat" unicode="&#x110;" horiz-adv-x="647" 
d="M30 0v265h-50v90h50v345h265q155 0 246 -94.5t91 -251.5q0 -162 -90.5 -258t-246.5 -96h-265zM155 115h128q104 0 164 63.5t60 169.5q0 109 -60 173t-164 64h-128v-230h74v-90h-74v-150z" />
    <glyph glyph-name="dcroat" unicode="&#x111;" horiz-adv-x="563" 
d="M413 700h120v-67h23v-52h-23v-332q0 -118 -74.5 -187.5t-187.5 -69.5q-114 0 -184.5 71t-70.5 186q0 116 70 187.5t179 71.5q104 0 148 -57v130h-139v52h139v67zM136 250q0 -69 37.5 -108.5t100.5 -39.5q64 0 101.5 39.5t37.5 108.5t-37.5 108.5t-101.5 39.5
q-63 0 -100.5 -39.5t-37.5 -108.5z" />
    <glyph glyph-name="dotlessi" unicode="&#x131;" horiz-adv-x="240" 
d="M60 0v500h120v-500h-120z" />
    <glyph glyph-name="Lslash" unicode="&#x141;" horiz-adv-x="508" 
d="M30 0v214l-25 -14l-28 50l53 29v421h125v-351l97 53l27 -49l-124 -69v-169h338v-115h-463z" />
    <glyph glyph-name="lslash" unicode="&#x142;" horiz-adv-x="180" 
d="M30 0v191l-24 -16l-27 44l51 32v449h120v-373l24 15l27 -43l-51 -33v-266h-120z" />
    <glyph glyph-name="OE" unicode="&#x152;" horiz-adv-x="1088" 
d="M15 350q0 165 95.5 264t257.5 99q137 0 229 -73v60h476v-115h-351v-159h289v-115h-289v-197h351v-115l-476 1v59q-92 -73 -229 -73q-162 0 -257.5 99.5t-95.5 264.5zM140 350q0 -116 60.5 -182.5t167.5 -66.5t168 67t61 182t-61 181.5t-168 66.5t-167.5 -66.5
t-60.5 -181.5z" />
    <glyph glyph-name="oe" unicode="&#x153;" horiz-adv-x="944" 
d="M15 251q0 115 71.5 186t187.5 71q127 0 199 -83q71 82 198 82q116 0 187 -70.5t71 -186.5q0 -14 -2 -40h-391q10 -52 45.5 -80.5t88.5 -28.5q76 0 113 54h131q-25 -76 -89 -120t-154 -44q-128 0 -199 84q-72 -83 -198 -83q-116 0 -187.5 71.5t-71.5 187.5zM135 250
q0 -69 37.5 -108.5t100.5 -39.5q64 0 101.5 39.5t37.5 108.5t-37.5 108.5t-101.5 39.5q-63 0 -100.5 -39.5t-37.5 -108.5zM545 320h251q-33 77 -126 77q-92 0 -125 -77z" />
    <glyph glyph-name="Scaron" unicode="&#x160;" horiz-adv-x="546" 
d="M391 893q-55 -77 -61 -145h-113q-6 68 -61 145h41q44 -31 77 -86q34 56 76 86h41zM531 203q0 -96 -63 -155t-185 -59q-162 0 -268 102l79 86q86 -73 188 -73q67 0 95.5 26t28.5 64q0 39 -29 64.5t-72 36.5t-93.5 26.5t-93.5 33t-72 57.5t-29 98q0 90 63.5 145.5
t179.5 55.5q150 0 260 -94l-73 -91q-86 70 -186 70q-60 0 -89.5 -21t-29.5 -55q0 -28 21.5 -47.5t56 -30.5t76 -21t82.5 -25t75.5 -37t56 -61.5t21.5 -94.5z" />
    <glyph glyph-name="scaron" unicode="&#x161;" horiz-adv-x="430" 
d="M333 693q-55 -77 -61 -145h-113q-6 68 -61 145h41q44 -31 77 -86q34 56 76 86h41zM143 365q0 -20 28 -32t68 -21.5t80 -24.5t68 -49.5t28 -86.5q0 -75 -53.5 -116t-141.5 -41q-121 0 -205 76l64 94q63 -60 144 -60q32 0 52 11t20 32q0 23 -28 37t-68 24t-80 24t-68 47
t-28 84q0 69 48.5 107t133.5 38q115 0 208 -76l-64 -93q-71 59 -146 59q-60 0 -60 -33z" />
    <glyph glyph-name="Ydieresis" unicode="&#x178;" horiz-adv-x="591" 
d="M132 810q0 33 20.5 53.5t54.5 20.5t55 -20.5t21 -53.5q0 -34 -21 -54.5t-55 -20.5t-54.5 20.5t-20.5 54.5zM308 810q0 33 20.5 53.5t54.5 20.5t55 -20.5t21 -53.5q0 -34 -21 -54.5t-55 -20.5t-54.5 20.5t-20.5 54.5zM0 700h131l165 -351l164 351h131l-233 -490v-210h-125
v210z" />
    <glyph glyph-name="Zcaron" unicode="&#x17d;" horiz-adv-x="520" 
d="M378 893q-55 -77 -61 -145h-113q-6 68 -61 145h41q44 -31 77 -86q34 56 76 86h41zM15 585v115h490v-85l-330 -500h330v-115h-490v85l330 500h-330z" />
    <glyph glyph-name="zcaron" unicode="&#x17e;" horiz-adv-x="430" 
d="M333 693q-55 -77 -61 -145h-113q-6 68 -61 145h41q44 -31 77 -86q34 56 76 86h41zM15 390v110h400v-80l-232 -310h232v-110h-400v80l233 310h-233z" />
    <glyph glyph-name="circumflex" unicode="&#x2c6;" horiz-adv-x="295" 
d="M30 538q55 77 61 145h113q6 -68 61 -145h-41q-44 31 -77 86q-34 -56 -76 -86h-41z" />
    <glyph glyph-name="caron" unicode="&#x2c7;" horiz-adv-x="295" 
d="M265 693q-55 -77 -61 -145h-113q-6 68 -61 145h41q44 -31 77 -86q34 56 76 86h41z" />
    <glyph glyph-name="breve" unicode="&#x2d8;" horiz-adv-x="270" 
d="M135 631q51 0 57 46h47q5 -57 -20 -99.5t-84 -42.5t-84 42.5t-20 99.5h47q6 -46 57 -46z" />
    <glyph glyph-name="dotaccent" unicode="&#x2d9;" horiz-adv-x="211" 
d="M30 610q0 33 20.5 53.5t54.5 20.5t55 -20.5t21 -53.5q0 -34 -21 -54.5t-55 -20.5t-54.5 20.5t-20.5 54.5z" />
    <glyph glyph-name="ring" unicode="&#x2da;" horiz-adv-x="226" 
d="M113 689q35 0 57.5 -22t22.5 -57t-22.5 -57.5t-57.5 -22.5t-57 22.5t-22 57.5q0 34 22 56.5t57 22.5zM113 646q-17 0 -27 -9.5t-10 -26.5q0 -37 37 -37q38 0 38 37q0 36 -38 36z" />
    <glyph glyph-name="ogonek" unicode="&#x2db;" horiz-adv-x="226" 
d="M182 25q-70 -70 -71 -119q-1 -38 26.5 -52.5t58.5 -6.5l-6 -68q-28 -10 -57 -10q-44 0 -73.5 23.5t-29.5 73.5q0 29 11.5 57t28 46t33 32.5t27.5 20.5l12 7z" />
    <glyph glyph-name="tilde" unicode="&#x2dc;" horiz-adv-x="416" 
d="M61 547q-3 54 19.5 93t67.5 39q29 0 67.5 -26.5t62.5 -26.5q39 0 43 46h34q3 -53 -19.5 -92.5t-66.5 -39.5q-29 0 -68 27t-62 27q-40 0 -44 -47h-34z" />
    <glyph glyph-name="hungarumlaut" unicode="&#x2dd;" horiz-adv-x="300" 
d="M30 548q55 77 61 145h82q-10 -42 -40 -81.5t-62 -63.5h-41zM127 548q55 77 61 145h82q-10 -42 -40 -81.5t-62 -63.5h-41z" />
    <glyph glyph-name="uni03BC" unicode="&#x3bc;" horiz-adv-x="600" 
d="M540 0h-120v60q-52 -69 -141 -69q-61 0 -99 34v-275h-120v750h120v-305q0 -40 27.5 -67t77.5 -27q57 0 96 38.5t39 113.5v247h120v-500z" />
    <glyph glyph-name="endash" unicode="&#x2013;" horiz-adv-x="524" 
d="M60 207v103h404v-103h-404z" />
    <glyph glyph-name="emdash" unicode="&#x2014;" horiz-adv-x="1030" 
d="M60 207v103h910v-103h-910z" />
    <glyph glyph-name="quoteleft" unicode="&#x2018;" horiz-adv-x="268" 
d="M208 544q0 -33 -20.5 -53t-53.5 -20q-34 0 -54 21t-20 59q0 48 30 95.5t64 66.5l27 -11q-27 -42 -32 -85q27 -5 43 -24t16 -49z" />
    <glyph glyph-name="quoteright" unicode="&#x2019;" horiz-adv-x="268" 
d="M60 640q0 33 20.5 53t53.5 20q34 0 54 -21t20 -59q0 -48 -30 -95.5t-64 -66.5l-27 11q27 42 32 85q-27 5 -43 24t-16 49z" />
    <glyph glyph-name="quotesinglbase" unicode="&#x201a;" horiz-adv-x="268" 
d="M60 65q0 33 20.5 53t53.5 20q34 0 54 -21t20 -59q0 -48 -30 -95.5t-64 -66.5l-27 11q27 42 32 85q-27 5 -43 24t-16 49z" />
    <glyph glyph-name="quotedblleft" unicode="&#x201c;" horiz-adv-x="452" 
d="M208 544q0 -33 -20.5 -53t-53.5 -20q-34 0 -54 21t-20 59q0 48 30 95.5t64 66.5l27 -11q-27 -42 -32 -85q27 -5 43 -24t16 -49zM392 544q0 -33 -20.5 -53t-53.5 -20q-34 0 -54 21t-20 59q0 48 30 95.5t64 66.5l27 -11q-27 -42 -32 -85q27 -5 43 -24t16 -49z" />
    <glyph glyph-name="quotedblright" unicode="&#x201d;" horiz-adv-x="452" 
d="M244 640q0 33 20.5 53t53.5 20q34 0 54 -21t20 -59q0 -48 -30 -95.5t-64 -66.5l-27 11q27 42 32 85q-27 5 -43 24t-16 49zM60 640q0 33 20.5 53t53.5 20q34 0 54 -21t20 -59q0 -48 -30 -95.5t-64 -66.5l-27 11q27 42 32 85q-27 5 -43 24t-16 49z" />
    <glyph glyph-name="quotedblbase" unicode="&#x201e;" horiz-adv-x="454" 
d="M246 65q0 33 20.5 53t53.5 20q34 0 54 -21t20 -59q0 -48 -30 -95.5t-64 -66.5l-27 11q27 42 32 85q-27 5 -43 24t-16 49zM60 65q0 33 20.5 53t53.5 20q34 0 54 -21t20 -59q0 -48 -30 -95.5t-64 -66.5l-27 11q27 42 32 85q-27 5 -43 24t-16 49z" />
    <glyph glyph-name="dagger" unicode="&#x2020;" horiz-adv-x="369" 
d="M125 -250v465h-65v90h65v445h120v-445h64v-90h-64v-465h-120z" />
    <glyph glyph-name="daggerdbl" unicode="&#x2021;" horiz-adv-x="569" 
d="M225 -250v439h-165v100h165v109h-165v100h165v252h120v-252h164v-100h-164v-109h164v-100h-164v-439h-120z" />
    <glyph glyph-name="bullet" unicode="&#x2022;" horiz-adv-x="359" 
d="M60 353q0 53 33 86t87 33q53 0 86 -33t33 -86q0 -54 -33 -87t-86 -33q-54 0 -87 33t-33 87z" />
    <glyph glyph-name="ellipsis" unicode="&#x2026;" horiz-adv-x="688" 
d="M60 65q0 33 20.5 53t53.5 20t53.5 -20t20.5 -53q0 -34 -20.5 -54t-53.5 -20t-53.5 20t-20.5 54zM270 65q0 33 20.5 53t53.5 20t53.5 -20t20.5 -53q0 -34 -20.5 -54t-53.5 -20t-53.5 20t-20.5 54zM480 65q0 33 20.5 53t53.5 20t53.5 -20t20.5 -53q0 -34 -20.5 -54
t-53.5 -20t-53.5 20t-20.5 54z" />
    <glyph glyph-name="perthousand" unicode="&#x2030;" horiz-adv-x="1104" 
d="M30 490q0 221 145 221q144 0 144 -221t-144 -221q-145 0 -145 221zM143 0l392 700h107l-392 -700h-107zM130 490q0 -126 44 -126q46 0 46 126t-46 126q-44 0 -44 -126zM465 211q0 221 145 221q144 0 144 -221t-144 -221q-145 0 -145 221zM785 211q0 221 145 221
q144 0 144 -221t-144 -221q-145 0 -145 221zM565 211q0 -126 44 -126q46 0 46 126t-46 126q-44 0 -44 -126zM885 211q0 -126 44 -126q46 0 46 126t-46 126q-44 0 -44 -126z" />
    <glyph glyph-name="guilsinglleft" unicode="&#x2039;" horiz-adv-x="340" 
d="M239 463l71 -61l-145 -128l145 -128l-71 -61l-209 189z" />
    <glyph glyph-name="guilsinglright" unicode="&#x203a;" horiz-adv-x="340" 
d="M101 85l-71 61l145 128l-145 128l71 61l209 -189z" />
    <glyph glyph-name="Euro" unicode="&#x20ac;" horiz-adv-x="605" 
d="M89 350v18h-59v100h74q31 115 119.5 180t218.5 65q73 0 133 -21l-36 -112q-42 18 -97 18q-76 0 -129 -34t-78 -96h214v-100h-235v-18q0 -21 1 -31h234v-100h-208q55 -117 201 -117q55 0 97 18l36 -112q-60 -21 -133 -21q-127 0 -214 61.5t-120 170.5h-78v100h60
q-1 10 -1 31z" />
    <glyph glyph-name="trademark" unicode="&#x2122;" horiz-adv-x="737" 
d="M131 360v284h-101v56h264v-56h-102v-284h-61zM338 360v340h70l99 -259l99 259h70v-340h-60v209l-79 -207v-2h-60v2l-79 207v-209h-60z" />
    <glyph glyph-name="minus" unicode="&#x2212;" horiz-adv-x="564" 
d="M60 277v115h444v-115h-444z" />
    </font>
</defs>
</svg>
