<svg width="88" height="57" viewBox="0 0 88 57" fill="none" xmlns="http://www.w3.org/2000/svg">
<path d="M29.9765 27.1807C30.6754 26.2866 30.5335 24.9773 29.656 24.2612C25.0795 20.5289 18.9309 20.7024 15.0383 24.672C14.6533 25.063 14.4426 25.5858 14.4404 26.1416C14.4404 26.6952 14.6512 27.218 15.034 27.6091C15.419 28.0045 15.9308 28.222 16.4749 28.222C17.019 28.222 17.5287 28.0067 17.9115 27.6135C20.6363 24.8367 24.6042 25.4584 27.1161 27.5102C27.9914 28.222 29.2732 28.077 29.9743 27.1829L29.9765 27.1807Z" fill="white"/>
<path d="M59.1238 24.6694C58.741 25.0604 58.5303 25.5811 58.5303 26.1391C58.5303 26.697 58.741 27.2177 59.1238 27.6087C59.5088 28.0019 60.0185 28.2172 60.5626 28.2172C61.1067 28.2172 61.6164 28.0019 61.9992 27.6087C64.7283 24.8342 68.6941 25.4581 71.1952 27.5054C71.6146 27.8547 72.148 28.0129 72.6921 27.9492C73.2276 27.8877 73.7244 27.6065 74.0555 27.1803C74.7545 26.2928 74.619 24.9901 73.748 24.2652C69.1651 20.5241 63.0143 20.6932 59.1238 24.6672V24.6694Z" fill="white"/>
<path d="M87.8669 27.1178C87.469 26.048 86.2926 25.5054 85.2453 25.9118C84.7205 26.1139 84.1764 26.272 83.6194 26.4082C81.2365 19.1435 74.6019 13.9855 67.0704 13.5659C66.8446 13.2144 66.6188 12.8629 66.3801 12.5202L66.3758 12.5136C66.3672 12.5005 66.3607 12.4873 66.3521 12.4741L66.2575 12.3357C66.2403 12.3115 66.2231 12.2874 66.2059 12.2632L66.1199 12.1578C66.0166 12.0216 65.9134 11.8788 65.8102 11.736C65.6704 11.5405 65.5263 11.345 65.3456 11.1077C65.2854 11.022 65.2188 10.9364 65.2274 10.9561C65.0059 10.6684 64.7693 10.3828 64.5542 10.1367C64.2832 9.80063 63.9994 9.49308 63.6961 9.16796L63.5327 9.0054C63.5176 8.99222 63.5004 8.97464 63.4854 8.95927C63.2961 8.75936 63.109 8.56604 62.9241 8.38591C62.9004 8.35955 62.8832 8.33978 62.8552 8.31122C62.6767 8.12889 62.5004 7.96193 62.3219 7.79278C62.2875 7.75324 62.2681 7.74225 62.2359 7.7115C62.1928 7.66756 62.1606 7.63681 62.1283 7.60825C62.1111 7.59287 62.0789 7.55992 62.066 7.54894C61.9348 7.43251 61.8208 7.33146 61.7692 7.3007C61.5692 7.10958 61.3606 6.93604 61.1584 6.76469L60.8229 6.49668C60.425 6.16497 60.0121 5.84864 59.5906 5.55207L59.1669 5.25331C59.1089 5.21377 59.0422 5.17203 58.9841 5.13249C58.7218 4.94137 58.4572 4.75025 58.1863 4.5767C57.8357 4.34604 57.4636 4.13735 57.098 3.93085L57.0142 3.88472C56.9776 3.86275 56.9454 3.84298 56.9109 3.82101C56.6701 3.68701 56.4378 3.57058 56.2012 3.44976L55.9797 3.33772C55.4937 3.0807 55.0076 2.85663 54.5238 2.65233C53.8549 2.35576 53.1581 2.10313 52.4613 1.86149C52.0183 1.7143 51.5882 1.58469 51.1451 1.45289L51.0548 1.42872L50.8312 1.36062C50.7709 1.34525 50.6957 1.32987 50.5795 1.3079L50.5064 1.28813C49.9516 1.13875 49.3967 1.02012 48.715 0.89271C48.4526 0.848775 48.201 0.81802 47.9429 0.778479C47.6848 0.738937 47.4246 0.697197 47.1665 0.666443C45.8267 0.481914 44.7621 0.39624 43.7384 0.39624C36.6801 0.39624 29.9573 3.13781 24.7464 8.17941L24.7034 8.23433C23.0409 9.86434 21.5957 11.6986 20.3763 13.6933C13.2385 14.5852 7.39094 19.4862 5.16721 26.3775C4.65536 26.2479 4.15642 26.0941 3.67253 25.9074C2.62518 25.5032 1.4488 26.0458 1.05093 27.1156C0.655219 28.1876 1.18642 29.3893 2.23377 29.7957C2.90691 30.0549 3.59511 30.2592 4.30051 30.4327C4.28115 30.6041 4.25965 30.7666 4.24244 30.9424L4.21448 31.4586C4.19943 31.7728 4.19943 32.0737 4.19943 32.4186C4.21448 42.816 12.4986 51.2648 22.6775 51.2648C24.0367 51.2648 25.3701 51.1066 26.5744 50.821C26.7013 50.8056 26.8196 50.7683 26.94 50.7397C31.7488 54.5138 37.6974 56.5919 43.7363 56.5919C49.7752 56.5919 56.0744 54.4039 60.8702 50.4783C62.5369 50.9902 64.3004 51.2648 66.1263 51.2648C76.3052 51.2648 84.5915 42.8006 84.5915 32.3901C84.5915 31.9463 84.5786 31.5158 84.5485 31.1006C84.5377 30.8875 84.5141 30.6722 84.4925 30.4591C85.241 30.2812 85.9743 30.0703 86.6862 29.7957C87.7357 29.3893 88.2647 28.1876 87.869 27.1156L87.8669 27.1178ZM29.2949 9.67981C30.9251 11.9425 33.0348 13.8141 35.4887 15.0729C35.9468 15.3211 36.4522 15.554 36.9834 15.7605C40.2673 17.0873 43.9449 17.3663 47.3235 16.5491C48.0741 16.38 48.844 16.1054 49.6032 15.7451C50.1645 15.4881 50.6828 15.2025 51.1516 14.9301C51.3796 14.7873 51.6097 14.6709 51.8527 14.5457C52.1452 14.4029 52.4484 14.2579 52.7947 14.1371C53.9345 13.7109 55.1625 13.4934 56.4443 13.4934C57.911 13.4934 59.3196 13.8185 60.6229 14.3853C59.9197 14.6094 59.1949 14.8774 58.3949 15.2376L57.6529 15.6243C57.3174 15.811 56.9798 15.9977 56.7002 16.1691C56.4765 16.2987 56.2658 16.4415 56.055 16.5843L55.8163 16.7424C55.7883 16.771 55.7453 16.7864 55.7045 16.8149L55.3819 17.0434C55.0313 17.3004 54.6808 17.5728 54.541 17.7156C54.3732 17.8298 54.2334 17.9441 54.0635 18.1022C53.6979 18.4318 53.3065 18.7898 52.9689 19.1479C50.2139 21.9883 48.4203 25.6789 47.8504 29.6002C46.9213 29.4046 45.9923 29.275 45.0697 29.2311C43.7363 29.1542 42.3104 29.2663 40.9082 29.5233C40.2695 25.2022 38.1856 21.2458 34.9403 18.2758C34.5467 17.9331 34.1403 17.6036 33.7338 17.2872C33.3273 16.9709 32.9058 16.6853 32.3746 16.3273L32.2198 16.2416C31.8542 16.0263 31.4756 15.7978 31.0842 15.5979C30.6348 15.3541 30.1724 15.1542 29.725 14.9543C29.4584 14.84 29.2068 14.7258 28.968 14.6687C28.7164 14.5676 28.4777 14.482 28.2261 14.3963C27.7357 14.2381 27.2303 14.0953 26.7529 13.9943C26.2905 13.88 25.8281 13.7944 25.3658 13.7373C25.355 13.7373 25.3442 13.7351 25.3335 13.7329C26.0367 12.8234 26.7766 11.9535 27.6153 11.1429C28.1637 10.6134 28.7272 10.1345 29.2949 9.68201V9.67981ZM8.44474 32.3923C8.44474 32.1638 8.44474 31.92 8.45979 31.7332L8.48775 31.2895C9.0211 24.1148 14.503 18.4867 21.4151 17.9133L21.6667 17.8979C21.7226 17.8979 21.7656 17.8979 21.8215 17.8826C21.9893 17.8826 22.4517 17.854 22.6775 17.854C26.1679 17.854 29.5336 19.1567 32.1273 21.5204C35.0586 24.1829 36.7403 27.8493 36.9231 31.8167L36.9102 32.3901C36.9102 32.5197 36.9102 32.6471 36.8823 32.8909C36.8672 33.2776 36.8393 33.651 36.7984 34.0508C36.7705 34.4089 36.7145 34.767 36.6307 35.169C36.5877 35.4699 36.5317 35.7423 36.4479 36.0279C36.4479 36.0433 36.4479 36.0565 36.4328 36.0719C36.4178 36.1158 36.4049 36.1729 36.4049 36.2147C36.3618 36.4014 36.293 36.5881 36.2091 36.9022C36.1941 36.9308 36.1812 36.9462 36.1812 36.9747C36.1812 36.9879 36.1812 37.0033 36.1661 37.0033C36.1382 37.0736 36.1231 37.1615 36.0952 37.2318C36.0392 37.3745 35.9833 37.5327 35.9274 37.6909L35.8156 37.9765C35.7876 38.0621 35.7597 38.1478 35.7167 38.2335C35.6048 38.4773 35.4779 38.7497 35.3231 39.0353V39.0507C35.2951 39.1364 35.2521 39.1935 35.2113 39.2792C35.1833 39.3516 35.1553 39.4088 35.1123 39.4659C35.0973 39.523 35.0564 39.5669 35.0285 39.6087C35.0134 39.6372 34.8736 39.8525 34.8736 39.8657C34.8306 39.9228 34.7897 39.9953 34.7747 40.0524C34.7467 40.081 34.7037 40.1666 34.6908 40.1952C34.6629 40.2238 34.6349 40.2809 34.6069 40.3094C34.551 40.4105 34.508 40.5093 34.3962 40.639C34.3682 40.6675 34.2972 40.7686 34.2843 40.7971C34.0736 41.1266 33.8349 41.4562 33.5424 41.7857L33.5273 41.8142C33.3037 42.0713 33.0649 42.3437 32.8262 42.5875L32.7144 42.7017C32.6714 42.7303 32.6434 42.772 32.5467 42.8599C32.5187 42.8885 32.4907 42.917 32.4757 42.9456C32.4198 42.9895 32.3639 43.0466 32.2929 43.1323C32.2499 43.1609 32.209 43.2048 32.166 43.2333C31.8305 43.5475 31.452 43.8638 31.0305 44.1648C30.9036 44.2658 30.7789 44.3647 30.6369 44.4504C30.2304 44.7228 29.781 44.9952 29.3186 45.2522C28.6325 45.6256 28.0003 45.9112 27.3422 46.1265C27.2863 46.1551 27.2303 46.1704 27.1873 46.1836C27.1034 46.2122 27.0196 46.2407 26.9637 46.2561L26.1507 46.5C25.0281 46.8009 23.8646 46.9305 22.6732 46.9305C14.8364 46.9305 8.45764 40.4281 8.44259 32.3945L8.44474 32.3923ZM31.5488 48.9384C31.8628 48.7648 32.1767 48.5957 32.4907 48.3892C32.7015 48.2596 32.8843 48.1322 33.0649 48.0025C33.3166 47.8444 33.5553 47.6598 33.865 47.416L34.2714 47.0865C34.5381 46.8866 34.7768 46.6713 34.9295 46.5285C35.1252 46.3703 35.2801 46.199 35.4758 45.9991L35.8263 45.641C36.0091 45.4697 36.1618 45.2829 36.3167 45.1116L36.7382 44.6393C36.878 44.4679 37.0328 44.2812 37.1726 44.0945L37.3683 43.8506C37.5081 43.6507 37.635 43.4508 37.7619 43.2487L37.8049 43.2048C37.9447 43.0334 38.1124 42.7896 38.2393 42.5611C38.3232 42.4469 38.4071 42.3041 38.4071 42.3041C38.478 42.1745 38.5619 42.0471 38.6178 41.9175C38.7168 41.7747 38.8135 41.6165 38.8974 41.4452C38.9533 41.3309 38.9963 41.2167 38.9963 41.2167C39.0523 41.1442 39.0953 41.0739 39.1232 40.9882C39.1791 40.9026 39.2071 40.8169 39.2351 40.7444C39.2781 40.6873 39.306 40.6148 39.3189 40.5862C39.4587 40.2699 39.5985 39.9711 39.7125 39.6834L39.7555 39.5977C39.8265 39.4549 39.8824 39.3121 39.9104 39.2242L39.9813 39.0243L40.0372 38.8376C40.0932 38.6794 40.1491 38.5235 40.205 38.3499C40.22 38.2928 40.248 38.2071 40.2889 38.0775L40.3727 37.7766C40.4286 37.6052 40.4846 37.4339 40.5276 37.2471V37.2318C40.6545 36.8012 40.7383 36.3574 40.7943 36.0147C40.9061 35.5139 40.962 35.0416 41.033 34.4968C41.0566 34.2332 41.0738 33.9805 41.0867 33.7411C42.0954 33.517 43.1169 33.3632 44.1535 33.3632C44.3944 33.361 44.6288 33.3632 44.8675 33.3764C45.803 33.4226 46.7428 33.6005 47.6805 33.8399C47.6977 34.042 47.7171 34.2617 47.7493 34.5253L47.7773 34.5956C47.7902 34.8109 47.8053 34.9691 47.8332 35.0965C47.8762 35.426 47.9171 35.7555 47.973 35.9994C48.5902 39.1781 49.9924 42.1723 52.0527 44.6503C52.3194 44.9644 52.6269 45.2939 52.8656 45.5378C53.1882 45.8805 53.5388 46.21 53.7904 46.4121C53.9022 46.5417 54.0141 46.6559 54.1689 46.7701C54.9259 47.4292 55.726 48.0311 56.5238 48.5166C56.5367 48.5254 56.5496 48.532 56.5625 48.5408C52.7882 51.0561 48.2956 52.4422 43.7384 52.4422C39.4265 52.4422 35.2478 51.2318 31.5531 48.9384H31.5488ZM66.1242 46.5571C64.722 46.5571 63.3628 46.3418 62.0853 45.942C62.0014 45.8717 61.1046 45.5993 61.0767 45.5839C60.881 45.5136 60.6552 45.4125 60.4595 45.3269C58.8745 44.5975 57.4163 43.5519 56.169 42.247C55.9733 42.0603 55.7625 41.8164 55.5797 41.6033C54.0098 39.7405 52.9581 37.4932 52.5086 35.0877C52.4656 34.8878 52.4248 34.6857 52.3818 34.343C52.3667 34.2573 52.3538 34.1563 52.3387 34.086L52.3258 33.9146C52.2979 33.6576 52.2699 33.3984 52.2549 33.1985L52.2398 32.3967C52.2398 32.1967 52.2398 31.9968 52.2549 31.7662C52.4226 28.2579 53.8399 24.9496 56.2507 22.4584C56.5174 22.186 56.812 21.929 57.0916 21.6566C57.1475 21.6281 57.1905 21.5709 57.3432 21.4567C57.5669 21.27 57.7927 21.0701 58.0443 20.8834H58.0594C58.0873 20.8702 58.1153 20.8548 58.1432 20.8262L58.2551 20.7406L58.4379 20.6263C58.6207 20.4967 58.8035 20.3825 59.0271 20.2529C59.2659 20.0947 59.5325 19.9387 59.7562 19.8245L60.3455 19.5236C60.9627 19.238 61.6208 18.9788 62.309 18.7942C62.5886 18.7086 62.8703 18.6361 63.1499 18.5789C63.3735 18.5218 63.6122 18.4647 63.8639 18.4208C64.0037 18.4054 64.1435 18.3768 64.3972 18.3637C64.58 18.3351 64.7757 18.3065 65.0145 18.2912C65.1413 18.2758 65.2811 18.2626 65.393 18.2626H65.4639L65.4919 18.2912H67.6511L67.6791 18.3483C74.2406 19.1084 79.4838 24.5915 79.9332 31.4367C79.9612 31.7508 79.9763 32.0671 79.9763 32.3967C79.9763 40.215 73.7502 46.5615 66.1242 46.5615V46.5571Z" fill="white"/>
</svg>
