<svg width="508" height="328" viewBox="0 0 508 328" fill="none" xmlns="http://www.w3.org/2000/svg">
<g opacity="0.05">
<path d="M169.495 156.243C173.572 151.027 172.744 143.39 167.625 139.213C140.93 117.441 105.064 118.454 82.3571 141.609C80.1116 143.89 78.8822 146.94 78.8696 150.182C78.8696 153.411 80.099 156.461 82.332 158.742C84.5776 161.048 87.5633 162.317 90.7372 162.317C93.9111 162.317 96.8842 161.061 99.1172 158.767C115.012 142.57 138.157 146.196 152.81 158.165C157.916 162.317 165.392 161.471 169.482 156.256L169.495 156.243Z" fill="#0F084B"/>
<path d="M339.516 141.591C337.283 143.872 336.053 146.909 336.053 150.163C336.053 153.418 337.283 156.455 339.516 158.736C341.761 161.03 344.734 162.286 347.908 162.286C351.082 162.286 354.055 161.03 356.288 158.736C372.208 142.552 395.341 146.191 409.931 158.134C412.377 160.171 415.488 161.094 418.662 160.722C421.786 160.364 424.683 158.723 426.615 156.237C430.693 151.06 429.902 143.462 424.821 139.233C398.088 117.41 362.21 118.397 339.516 141.578V141.591Z" fill="#0F084B"/>
<path d="M507.18 155.873C504.859 149.632 497.997 146.467 491.888 148.838C488.827 150.016 485.653 150.939 482.404 151.734C468.504 109.357 429.802 79.269 385.87 76.8214C384.553 74.7711 383.235 72.7209 381.843 70.7218L381.818 70.6834C381.768 70.6065 381.73 70.5296 381.68 70.4528L381.128 69.6455C381.028 69.5045 380.927 69.3635 380.827 69.2226L380.325 68.6075C379.723 67.813 379.121 66.9801 378.519 66.1472C377.703 65.0067 376.863 63.8662 375.809 62.4823C375.458 61.9825 375.069 61.4828 375.119 61.5981C373.827 59.9194 372.447 58.2536 371.192 56.8184C369.612 54.8578 367.956 53.0638 366.187 51.1673L365.233 50.219C365.146 50.1422 365.045 50.0396 364.957 49.9499C363.853 48.7838 362.762 47.6562 361.683 46.6054C361.545 46.4517 361.445 46.3363 361.282 46.1697C360.241 45.1062 359.212 44.1323 358.171 43.1456C357.97 42.9149 357.857 42.8508 357.669 42.6715C357.418 42.4152 357.23 42.2358 357.042 42.0692C356.941 41.9795 356.753 41.7873 356.678 41.7232C355.913 41.044 355.248 40.4546 354.947 40.2752C353.78 39.1604 352.563 38.148 351.384 37.1485L349.427 35.5852C347.106 33.6502 344.697 31.805 342.238 30.075L339.767 28.3323C339.428 28.1017 339.04 27.8582 338.701 27.6275C337.17 26.5127 335.627 25.3978 334.047 24.3855C332.002 23.04 329.831 21.8227 327.699 20.6181L327.21 20.349C326.996 20.2209 326.808 20.1056 326.607 19.9774C325.202 19.1957 323.848 18.5166 322.468 17.8118L321.175 17.1583C318.34 15.659 315.505 14.352 312.682 13.1602C308.781 11.4303 304.716 9.95667 300.652 8.5471C298.068 7.68855 295.559 6.93251 292.974 6.16365L292.447 6.02269L291.143 5.62546C290.792 5.53576 290.352 5.44606 289.675 5.31792L289.249 5.20258C286.012 4.33121 282.775 3.63924 278.799 2.89601C277.268 2.63973 275.8 2.46033 274.295 2.22968C272.789 1.99902 271.272 1.75555 269.766 1.57615C261.951 0.49975 255.741 0 249.769 0C208.597 0 169.381 15.9922 138.985 45.4009L138.734 45.7212C129.037 55.2294 120.606 65.9293 113.493 77.5647C71.8566 82.7673 37.7468 111.356 24.7753 151.554C21.7896 150.798 18.8792 149.901 16.0565 148.812C9.94713 146.454 3.08503 149.619 0.76421 155.86C-1.54407 162.113 1.55455 169.122 7.66395 171.493C11.5905 173.005 15.6049 174.197 19.7197 175.209C19.6068 176.209 19.4813 177.157 19.381 178.182L19.2179 181.193C19.1301 183.026 19.1301 184.782 19.1301 186.793C19.2179 247.443 67.5411 296.727 126.917 296.727C134.845 296.727 142.623 295.804 149.648 294.138C150.388 294.049 151.078 293.831 151.781 293.664C179.831 315.679 214.531 327.801 249.757 327.801C284.983 327.801 321.727 315.038 349.703 292.139C359.425 295.125 369.712 296.727 380.363 296.727C439.738 296.727 488.074 247.353 488.074 186.627C488.074 184.038 487.999 181.527 487.823 179.105C487.76 177.862 487.622 176.606 487.497 175.363C491.862 174.325 496.14 173.095 500.293 171.493C506.415 169.122 509.501 162.113 507.192 155.86L507.18 155.873ZM165.517 54.153C175.026 67.3517 187.333 78.2694 201.647 85.612C204.319 87.06 207.267 88.4183 210.366 89.6229C229.522 97.3627 250.974 98.9901 270.682 94.2232C275.06 93.2365 279.551 91.6347 283.98 89.5332C287.254 88.0339 290.277 86.3681 293.012 84.7791C294.342 83.9462 295.684 83.267 297.102 82.5366C298.808 81.7037 300.577 80.8579 302.596 80.1531C309.245 77.6672 316.408 76.3986 323.885 76.3986C332.441 76.3986 340.658 78.2951 348.26 81.6011C344.158 82.9082 339.93 84.4715 335.263 86.5731L330.935 88.8284C328.978 89.9176 327.009 91.0068 325.378 92.0063C324.073 92.7624 322.844 93.5953 321.615 94.4282L320.222 95.3508C320.059 95.5174 319.808 95.6071 319.57 95.7737L317.688 97.1064C315.643 98.6057 313.598 100.195 312.783 101.028C311.804 101.694 310.989 102.36 309.998 103.283C307.865 105.205 305.582 107.294 303.613 109.382C287.542 125.951 277.08 147.479 273.755 170.353C268.336 169.212 262.917 168.456 257.535 168.2C249.757 167.751 241.44 168.405 233.26 169.904C229.534 144.699 217.378 121.62 198.448 104.295C196.152 102.296 193.781 100.374 191.41 98.5288C189.039 96.6835 186.58 95.0177 183.482 92.929L182.579 92.4292C180.446 91.1734 178.238 89.8407 175.955 88.6746C173.333 87.2522 170.636 86.0861 168.026 84.9201C166.471 84.2537 165.003 83.5874 163.611 83.2542C162.143 82.6647 160.75 82.165 159.283 81.6652C156.422 80.7426 153.474 79.9097 150.689 79.3202C147.992 78.6539 145.295 78.1541 142.598 77.8209C142.535 77.8209 142.472 77.8081 142.41 77.7953C146.512 72.4902 150.827 67.4158 155.72 62.6873C158.919 59.5991 162.206 56.8056 165.517 54.1658V54.153ZM43.8938 186.64C43.8938 185.307 43.8938 183.884 43.9817 182.795L44.1447 180.207C47.2559 138.355 79.233 105.525 119.553 102.181L121.02 102.091C121.347 102.091 121.597 102.091 121.924 102.001C122.902 102.001 125.599 101.835 126.917 101.835C147.277 101.835 166.91 109.434 182.039 123.222C199.138 138.753 208.948 160.14 210.014 183.282L209.939 186.627C209.939 187.383 209.939 188.126 209.776 189.548C209.688 191.804 209.525 193.982 209.287 196.314C209.124 198.403 208.798 200.492 208.308 202.837C208.057 204.592 207.731 206.181 207.242 207.847C207.242 207.937 207.242 208.014 207.154 208.103C207.066 208.36 206.991 208.693 206.991 208.936C206.74 210.026 206.339 211.115 205.85 212.947C205.762 213.114 205.686 213.204 205.686 213.37C205.686 213.447 205.686 213.537 205.599 213.537C205.436 213.947 205.348 214.459 205.185 214.869C204.858 215.702 204.532 216.625 204.206 217.548L203.554 219.213C203.391 219.713 203.228 220.213 202.977 220.713C202.324 222.135 201.584 223.724 200.681 225.39V225.48C200.518 225.979 200.267 226.312 200.029 226.812C199.866 227.235 199.702 227.568 199.452 227.901C199.364 228.235 199.125 228.491 198.962 228.734C198.874 228.901 198.059 230.157 198.059 230.234C197.808 230.567 197.57 230.99 197.482 231.323C197.319 231.489 197.068 231.989 196.993 232.156C196.83 232.322 196.667 232.656 196.503 232.822C196.177 233.412 195.926 233.988 195.274 234.744C195.111 234.911 194.697 235.5 194.622 235.667C193.392 237.589 192 239.511 190.294 241.433L190.206 241.6C188.901 243.099 187.509 244.688 186.116 246.111L185.464 246.777C185.213 246.943 185.05 247.187 184.485 247.699C184.322 247.866 184.159 248.033 184.071 248.199C183.745 248.456 183.419 248.789 183.005 249.288C182.754 249.455 182.516 249.711 182.265 249.878C180.308 251.71 178.1 253.556 175.641 255.311C174.901 255.901 174.173 256.477 173.345 256.977C170.974 258.566 168.353 260.155 165.655 261.654C161.654 263.833 157.965 265.498 154.127 266.754C153.8 266.921 153.474 267.011 153.223 267.087C152.734 267.254 152.245 267.421 151.919 267.51L147.177 268.933C140.628 270.688 133.841 271.444 126.891 271.444C81.1775 271.444 43.9691 233.514 43.8813 186.652L43.8938 186.64ZM178.665 283.156C180.496 282.144 182.328 281.157 184.159 279.953C185.389 279.197 186.455 278.454 187.509 277.698C188.976 276.775 190.369 275.699 192.175 274.276L194.546 272.354C196.102 271.188 197.495 269.932 198.385 269.099C199.527 268.177 200.43 267.177 201.572 266.011L203.617 263.922C204.683 262.923 205.574 261.834 206.477 260.834L208.936 258.079C209.751 257.08 210.654 255.99 211.47 254.901L212.611 253.479C213.427 252.313 214.167 251.146 214.907 249.968L215.158 249.711C215.973 248.712 216.952 247.289 217.692 245.957C218.181 245.29 218.67 244.457 218.67 244.457C219.084 243.701 219.574 242.958 219.9 242.202C220.477 241.369 221.041 240.447 221.531 239.447C221.857 238.781 222.108 238.114 222.108 238.114C222.434 237.692 222.685 237.281 222.848 236.782C223.174 236.282 223.337 235.782 223.5 235.359C223.751 235.026 223.914 234.603 223.99 234.437C224.805 232.591 225.62 230.849 226.285 229.17L226.536 228.67C226.95 227.837 227.276 227.004 227.439 226.492L227.853 225.326L228.18 224.237C228.506 223.314 228.832 222.404 229.158 221.392C229.246 221.059 229.409 220.559 229.647 219.803L230.137 218.047C230.463 217.048 230.789 216.048 231.04 214.959V214.869C231.78 212.358 232.269 209.769 232.595 207.77C233.248 204.849 233.574 202.094 233.988 198.916C234.126 197.378 234.226 195.904 234.301 194.508C240.185 193.2 246.144 192.303 252.191 192.303C253.596 192.291 254.963 192.303 256.356 192.38C261.813 192.649 267.295 193.687 272.764 195.084C272.865 196.263 272.978 197.544 273.166 199.082L273.329 199.492C273.404 200.748 273.492 201.671 273.655 202.414C273.906 204.336 274.144 206.258 274.471 207.681C278.071 226.223 286.25 243.689 298.268 258.143C299.824 259.976 301.618 261.898 303.01 263.32C304.892 265.319 306.937 267.241 308.405 268.42C309.057 269.176 309.709 269.842 310.613 270.509C315.028 274.353 319.695 277.864 324.349 280.696C324.425 280.747 324.5 280.786 324.575 280.837C302.559 295.509 276.352 303.595 249.769 303.595C224.617 303.595 200.242 296.535 178.69 283.156H178.665ZM380.35 269.266C372.171 269.266 364.242 268.01 356.791 265.678C356.301 265.268 351.07 263.679 350.907 263.589C349.765 263.179 348.448 262.59 347.307 262.09C338.061 257.836 329.555 251.736 322.279 244.124C321.138 243.035 319.908 241.613 318.842 240.37C309.684 229.503 303.55 216.394 300.928 202.363C300.677 201.197 300.439 200.018 300.188 198.019C300.1 197.519 300.025 196.929 299.937 196.519L299.862 195.52C299.698 194.021 299.535 192.508 299.448 191.342L299.36 186.665C299.36 185.499 299.36 184.333 299.448 182.988C300.426 162.523 308.693 143.225 322.756 128.694C324.312 127.105 326.03 125.605 327.661 124.016C327.987 123.85 328.238 123.517 329.129 122.85C330.434 121.761 331.751 120.595 333.219 119.506H333.306C333.47 119.429 333.633 119.339 333.796 119.173L334.448 118.673L335.514 118.006C336.581 117.25 337.647 116.584 338.952 115.828C340.344 114.905 341.9 113.996 343.204 113.329L346.642 111.574C350.242 109.908 354.081 108.396 358.095 107.319C359.726 106.82 361.37 106.397 363 106.064C364.305 105.73 365.698 105.397 367.165 105.141C367.981 105.051 368.796 104.885 370.276 104.808C371.343 104.641 372.484 104.475 373.877 104.385C374.617 104.295 375.432 104.218 376.085 104.218H376.499L376.662 104.385H389.257L389.42 104.718C427.695 109.152 458.279 141.136 460.901 181.065C461.064 182.898 461.152 184.743 461.152 186.665C461.152 232.271 424.835 269.292 380.35 269.292V269.266Z" fill="#0F084B"/>
</g>
</svg>
