<svg width="140" height="33" viewBox="0 0 140 33" fill="none" xmlns="http://www.w3.org/2000/svg">
<path d="M136.437 0.466917H135.739V0.0703125H137.555V0.466917H136.854V2.48369H136.437V0.466917Z" fill="#4E63F6"/>
<path d="M137.674 0.0703125H138.158L138.838 1.90777L139.516 0.0703125H140.001V2.48264H139.584V1.00381L139.044 2.46893L139.047 2.48264H138.63L138.633 2.46893L138.093 1.00381V2.48264H137.676V0.0703125H137.674Z" fill="#4E63F6"/>
<path d="M7.33045 4.56384H0V0.398438H19.0825V4.56384H11.7163V25.7558H7.33148V4.56384H7.33045Z" fill="#4E63F6"/>
<path d="M23.6037 7.39062C29.0406 7.39062 32.6532 11.1225 32.6532 16.7003C32.6532 22.2781 29.0406 26.0827 23.6037 26.0827C18.1669 26.0827 14.5186 22.315 14.5186 16.7003C14.5186 11.0856 18.1669 7.39062 23.6037 7.39062ZM23.569 22.0988C26.5157 22.0988 28.4441 20.1062 28.4441 16.7372C28.4441 13.3682 26.5147 11.3757 23.569 11.3757C20.6234 11.3757 18.7287 13.3682 18.7287 16.7372C18.7287 20.1062 20.6581 22.0988 23.569 22.0988Z" fill="#4E63F6"/>
<path d="M33.918 32.999V16.6612C33.918 10.8292 37.9514 7.35156 43.0736 7.35156C48.1959 7.35156 52.0536 11.0824 52.0536 16.6612C52.0536 22.2401 48.4052 26.0437 43.284 26.0437C40.7592 26.0437 38.9697 25.1017 38.1281 23.9784V32.999H33.919H33.918ZM42.9674 11.3366C40.0565 11.3366 38.1271 13.3291 38.1271 16.6981C38.1271 20.0672 40.0565 22.0597 42.9674 22.0597C45.8783 22.0597 47.8435 20.0672 47.8435 16.6981C47.8435 13.3291 45.9141 11.3366 42.9674 11.3366Z" fill="#4E63F6"/>
<path d="M53.9463 0.398438H65.733C69.7317 0.398438 72.2566 3.18838 72.2566 7.09958C72.2566 9.56254 71.274 11.0846 69.7655 11.9179C72.1167 12.7153 74.0103 14.7806 74.0103 18.33C74.0103 22.6769 71.2046 25.7558 66.7146 25.7558H53.9463V0.398438ZM67.8728 7.38965C67.8728 5.65134 66.7851 4.56384 65.1713 4.56384H58.3321V10.1785H65.1713C66.7851 10.1785 67.8728 9.05518 67.8728 7.38859V7.38965ZM69.6265 18.0041C69.6265 15.7943 68.2232 14.345 66.1538 14.345H58.3321V21.5904H66.1538C68.2232 21.5904 69.6265 20.1411 69.6265 18.0041Z" fill="#4E63F6"/>
<path d="M84.5022 7.39062C89.939 7.39062 93.5527 11.1225 93.5527 16.7003C93.5527 22.2781 89.939 26.0827 84.5022 26.0827C79.0654 26.0827 75.417 22.315 75.417 16.7003C75.417 11.0856 79.0664 7.39062 84.5022 7.39062ZM84.4675 22.0988C87.4142 22.0988 89.3435 20.1062 89.3435 16.7372C89.3435 13.3682 87.4142 11.3757 84.4675 11.3757C81.5208 11.3757 79.6261 13.3682 79.6261 16.7372C79.6261 20.1062 81.5565 22.0988 84.4675 22.0988Z" fill="#4E63F6"/>
<path d="M109.139 7.64626H113.101V11.6313H109.104V25.753H104.894V11.6313H100.437V25.753H96.2264V11.6313H94.4727V7.64626H96.2611C96.6533 2.75199 99.6664 0.144531 105.032 0.144531V4.12956C102.157 4.12956 100.788 5.14534 100.471 7.64626H104.929C105.314 2.75199 108.334 0.144531 113.699 0.144531V4.12956C110.824 4.12956 109.455 5.14534 109.139 7.64626Z" fill="#4E63F6"/>
<path d="M116.501 0C117.799 0 118.815 1.0875 118.815 2.39123C118.815 3.76774 117.798 4.81832 116.501 4.81832C115.204 4.81832 114.187 3.76774 114.187 2.39123C114.187 1.0875 115.204 0 116.501 0ZM114.395 7.64413H118.605V25.7561H114.395V7.64413Z" fill="#4E63F6"/>
<path d="M136.289 14.9595V25.7543H132.08V15.0671C132.08 12.4955 130.256 11.3362 128.221 11.3362C126.187 11.3362 124.362 12.4955 124.362 15.0671V25.7543H120.152V14.9595C120.152 11.8077 122.433 7.31641 128.22 7.31641C134.007 7.31641 136.288 11.8077 136.288 14.9595H136.289Z" fill="#4E63F6"/>
</svg>
