<svg width="213" height="45" viewBox="0 0 213 45" fill="none" xmlns="http://www.w3.org/2000/svg">
<path d="M206.977 6.32024H206.219V5.89417H208.192V6.32024H207.43V8.4869H206.977V6.32024Z" fill="white"/>
<path d="M208.32 5.89554H208.846L209.585 7.86955L210.322 5.89554H210.847V8.48714H210.395V6.89841L209.808 8.47241L209.811 8.48714H209.359L209.362 8.47241L208.775 6.89841V8.48714H208.323V5.89554H208.32Z" fill="white"/>
<path d="M66.7481 10.7219H58.7861V6.24698H79.5126V10.7219H71.5118V33.4888H66.7492V10.7219H66.7481Z" fill="white"/>
<path d="M84.4231 13.7576C90.3283 13.7576 94.2521 17.7668 94.2521 23.7591C94.2521 29.7514 90.3283 33.8388 84.4231 33.8388C78.5179 33.8388 74.5552 29.7911 74.5552 23.7591C74.5552 17.7272 78.5179 13.7576 84.4231 13.7576ZM84.3853 29.5588C87.5859 29.5588 89.6804 27.4182 89.6804 23.7988C89.6804 20.1794 87.5848 18.0388 84.3853 18.0388C81.1859 18.0388 79.128 20.1794 79.128 23.7988C79.128 27.4182 81.2236 29.5588 84.3853 29.5588Z" fill="white"/>
<path d="M95.6265 41.2726V23.7207C95.6265 17.4553 100.007 13.7192 105.571 13.7192C111.134 13.7192 115.325 17.7273 115.325 23.7207C115.325 29.7141 111.362 33.8004 105.799 33.8004C103.057 33.8004 101.113 32.7885 100.199 31.5816V41.2726H95.6276H95.6265ZM105.456 18.0004C102.294 18.0004 100.198 20.141 100.198 23.7604C100.198 27.3798 102.294 29.5203 105.456 29.5203C108.617 29.5203 110.752 27.3798 110.752 23.7604C110.752 20.141 108.656 18.0004 105.456 18.0004Z" fill="white"/>
<path d="M117.38 6.2471H130.182C134.525 6.2471 137.268 9.24438 137.268 13.4462C137.268 16.0922 136.2 17.7274 134.562 18.6226C137.116 19.4793 139.172 21.6981 139.172 25.5113C139.172 30.1811 136.125 33.4889 131.248 33.4889H117.38V6.2471ZM132.506 13.7579C132.506 11.8904 131.325 10.7221 129.572 10.7221H122.144V16.754H129.572C131.325 16.754 132.506 15.5472 132.506 13.7567V13.7579ZM134.411 25.1611C134.411 22.7871 132.887 21.2301 130.639 21.2301H122.144V29.014H130.639C132.887 29.014 134.411 27.457 134.411 25.1611Z" fill="white"/>
<path d="M150.569 13.7576C156.474 13.7576 160.399 17.7668 160.399 23.7591C160.399 29.7514 156.474 33.8388 150.569 33.8388C144.663 33.8388 140.701 29.7911 140.701 23.7591C140.701 17.7272 144.664 13.7576 150.569 13.7576ZM150.531 29.5588C153.731 29.5588 155.827 27.4182 155.827 23.7988C155.827 20.1794 153.731 18.0388 150.531 18.0388C147.33 18.0388 145.272 20.1794 145.272 23.7988C145.272 27.4182 147.369 29.5588 150.531 29.5588Z" fill="white"/>
<path d="M177.327 14.0317H181.631V18.3129H177.29V33.484H172.717V18.3129H167.876V33.484H163.303V18.3129H161.398V14.0317H163.34C163.766 8.77368 167.039 5.97244 172.867 5.97244V10.2536C169.744 10.2536 168.257 11.3449 167.913 14.0317H172.755C173.173 8.77368 176.453 5.97244 182.281 5.97244V10.2536C179.158 10.2536 177.671 11.3449 177.327 14.0317Z" fill="white"/>
<path d="M185.324 5.81863C186.734 5.81863 187.838 6.98695 187.838 8.38757C187.838 9.86638 186.733 10.995 185.324 10.995C183.915 10.995 182.81 9.86638 182.81 8.38757C182.81 6.98695 183.915 5.81863 185.324 5.81863ZM183.037 14.0308H187.609V33.4888H183.037V14.0308Z" fill="white"/>
<path d="M206.817 21.8918V33.4888H202.245V22.0074C202.245 19.2447 200.263 17.9993 198.054 17.9993C195.844 17.9993 193.862 19.2447 193.862 22.0074V33.4888H189.29V21.8918C189.29 18.5058 191.767 13.6807 198.053 13.6807C204.338 13.6807 206.815 18.5058 206.815 21.8918H206.817Z" fill="white"/>
<path d="M21.9461 21.3614C22.3067 20.9002 22.2335 20.2249 21.7808 19.8554C19.4201 17.9302 16.2484 18.0197 14.2404 20.0673C14.0418 20.2691 13.9331 20.5388 13.932 20.8254C13.932 21.111 14.0407 21.3807 14.2382 21.5824C14.4368 21.7864 14.7008 21.8986 14.9815 21.8986C15.2621 21.8986 15.5251 21.7875 15.7225 21.5847C17.1281 20.1523 19.1749 20.473 20.4707 21.5314C20.9222 21.8986 21.5834 21.8238 21.945 21.3626L21.9461 21.3614Z" fill="white"/>
<path d="M36.9815 20.0659C36.784 20.2676 36.6753 20.5362 36.6753 20.824C36.6753 21.1118 36.784 21.3804 36.9815 21.5821C37.1801 21.785 37.443 21.896 37.7237 21.896C38.0043 21.896 38.2672 21.785 38.4647 21.5821C39.8725 20.1509 41.9182 20.4727 43.2084 21.5289C43.4247 21.709 43.6999 21.7906 43.9805 21.7578C44.2568 21.726 44.513 21.581 44.6839 21.3611C45.0444 20.9033 44.9745 20.2314 44.5252 19.8574C42.1612 17.9276 38.9883 18.0148 36.9815 20.0648V20.0659Z" fill="white"/>
<path d="M51.8086 21.329C51.6034 20.7771 50.9965 20.4972 50.4563 20.7068C50.1856 20.8111 49.9049 20.8927 49.6176 20.9629C48.3884 17.2155 44.966 14.5548 41.0809 14.3383C40.9645 14.157 40.848 13.9757 40.7248 13.7989L40.7226 13.7955C40.7182 13.7887 40.7148 13.7819 40.7104 13.7751L40.6616 13.7037C40.6527 13.6913 40.6438 13.6788 40.635 13.6663L40.5906 13.6119C40.5373 13.5417 40.4841 13.468 40.4308 13.3944C40.3587 13.2935 40.2844 13.1927 40.1912 13.0703C40.1602 13.0261 40.1258 12.9819 40.1302 12.9921C40.0159 12.8436 39.8939 12.6963 39.783 12.5694C39.6432 12.396 39.4967 12.2374 39.3403 12.0697L39.256 11.9858C39.2483 11.979 39.2394 11.97 39.2316 11.962C39.134 11.8589 39.0375 11.7592 38.9421 11.6663C38.9299 11.6527 38.921 11.6425 38.9066 11.6277C38.8145 11.5337 38.7235 11.4476 38.6314 11.3603C38.6137 11.3399 38.6037 11.3342 38.5871 11.3184C38.5649 11.2957 38.5482 11.2798 38.5316 11.2651C38.5227 11.2572 38.5061 11.2402 38.4994 11.2345C38.4318 11.1745 38.373 11.1223 38.3463 11.1065C38.2432 11.0079 38.1355 10.9184 38.0313 10.83L37.8582 10.6917C37.653 10.5206 37.44 10.3574 37.2225 10.2045L37.004 10.0503C36.974 10.0299 36.9396 10.0084 36.9097 9.98801C36.7743 9.88943 36.6379 9.79084 36.4981 9.70132C36.3173 9.58233 36.1254 9.47468 35.9368 9.36816L35.8935 9.34436C35.8746 9.33303 35.858 9.32283 35.8403 9.3115C35.716 9.24238 35.5962 9.18232 35.4742 9.11999L35.3599 9.0622C35.1092 8.92962 34.8585 8.81403 34.6088 8.70864C34.2638 8.55566 33.9044 8.42535 33.545 8.3007C33.3164 8.22477 33.0945 8.15791 32.866 8.08992L32.8194 8.07746L32.704 8.04233C32.673 8.0344 32.6342 8.02647 32.5743 8.01513L32.5365 8.00493C32.2503 7.92788 31.9641 7.86669 31.6124 7.80096C31.4771 7.7783 31.3473 7.76243 31.2142 7.74204C31.081 7.72164 30.9468 7.70011 30.8137 7.68424C30.1225 7.58905 29.5734 7.54486 29.0453 7.54486C25.4044 7.54486 21.9365 8.95908 19.2484 11.5597L19.2263 11.5881C18.3687 12.4289 17.6232 13.3751 16.9942 14.404C13.3122 14.8641 10.2958 17.3923 9.14869 20.9471C8.88466 20.8802 8.62728 20.8009 8.37767 20.7046C7.83741 20.4961 7.23058 20.776 7.02534 21.3278C6.82122 21.8808 7.09524 22.5007 7.6355 22.7103C7.98274 22.844 8.33774 22.9494 8.70161 23.0389C8.69163 23.1273 8.68053 23.2112 8.67166 23.3018L8.65724 23.5681C8.64947 23.7302 8.64947 23.8854 8.64947 24.0633C8.65724 29.4267 12.9305 33.7849 18.1812 33.7849C18.8823 33.7849 19.5702 33.7034 20.1914 33.556C20.2569 33.5481 20.3179 33.5288 20.38 33.5141C22.8606 35.4609 25.9291 36.5329 29.0442 36.5329C32.1593 36.5329 35.4087 35.4043 37.8826 33.3793C38.7424 33.6433 39.6521 33.7849 40.5939 33.7849C45.8446 33.7849 50.119 29.4188 50.119 24.0486C50.119 23.8197 50.1124 23.5976 50.0968 23.3834C50.0913 23.2735 50.0791 23.1624 50.068 23.0525C50.454 22.9607 50.8323 22.852 51.1995 22.7103C51.7409 22.5007 52.0138 21.8808 51.8097 21.3278L51.8086 21.329ZM21.5948 12.3337C22.4357 13.5009 23.524 14.4664 24.7898 15.1157C25.0261 15.2437 25.2868 15.3639 25.5608 15.4704C27.2548 16.1548 29.1518 16.2987 30.8947 15.8772C31.2818 15.7899 31.679 15.6483 32.0706 15.4624C32.3601 15.3299 32.6275 15.1825 32.8693 15.042C32.9869 14.9684 33.1056 14.9083 33.231 14.8437C33.3819 14.7701 33.5383 14.6953 33.7169 14.6329C34.3049 14.4131 34.9383 14.3009 35.5995 14.3009C36.3561 14.3009 37.0828 14.4686 37.755 14.761C37.3923 14.8766 37.0184 15.0148 36.6057 15.2007L36.223 15.4001C36.0499 15.4964 35.8757 15.5928 35.7315 15.6811C35.6162 15.748 35.5074 15.8217 35.3987 15.8953L35.2756 15.9769C35.2612 15.9916 35.239 15.9996 35.2179 16.0143L35.0515 16.1322C34.8707 16.2647 34.6898 16.4053 34.6177 16.4789C34.5312 16.5378 34.4591 16.5968 34.3714 16.6783C34.1828 16.8483 33.9809 17.033 33.8068 17.2177C32.3857 18.683 31.4604 20.5867 31.1665 22.6095C30.6872 22.5086 30.208 22.4417 29.732 22.4191C29.0442 22.3794 28.3087 22.4372 27.5854 22.5698C27.2559 20.3408 26.1809 18.2999 24.5069 16.7679C24.3039 16.5911 24.0942 16.4211 23.8845 16.2579C23.6748 16.0948 23.4574 15.9474 23.1834 15.7627L23.1035 15.7185C22.9149 15.6075 22.7197 15.4896 22.5178 15.3865C22.2859 15.2607 22.0474 15.1576 21.8166 15.0545C21.6791 14.9956 21.5493 14.9366 21.4261 14.9072C21.2963 14.8551 21.1732 14.8109 21.0434 14.7667C20.7905 14.6851 20.5298 14.6114 20.2835 14.5593C20.045 14.5004 19.8065 14.4562 19.5679 14.4267C19.5624 14.4267 19.5568 14.4256 19.5513 14.4244C19.9141 13.9553 20.2957 13.5066 20.7283 13.0884C21.0112 12.8153 21.3019 12.5683 21.5948 12.3348V12.3337ZM10.8394 24.0497C10.8394 23.9319 10.8394 23.8061 10.8471 23.7098L10.8616 23.4809C11.1367 19.7799 13.9645 16.8767 17.53 16.5809L17.6598 16.573C17.6887 16.573 17.7108 16.573 17.7397 16.565C17.8262 16.565 18.0647 16.5503 18.1812 16.5503C19.9817 16.5503 21.7179 17.2223 23.0558 18.4416C24.5679 19.815 25.4354 21.7063 25.5297 23.7528L25.5231 24.0486C25.5231 24.1155 25.5231 24.1812 25.5086 24.307C25.5009 24.5064 25.4865 24.6991 25.4654 24.9053C25.451 25.09 25.4221 25.2747 25.3788 25.4821C25.3567 25.6373 25.3278 25.7778 25.2845 25.9252C25.2845 25.9331 25.2845 25.9399 25.2768 25.9478C25.269 25.9705 25.2624 26 25.2624 26.0215C25.2402 26.1178 25.2047 26.2141 25.1614 26.3762C25.1536 26.3909 25.147 26.3988 25.147 26.4136C25.147 26.4204 25.147 26.4283 25.1392 26.4283C25.1248 26.4646 25.117 26.5099 25.1026 26.5461C25.0738 26.6198 25.0449 26.7014 25.0161 26.783L24.9584 26.9303C24.944 26.9745 24.9295 27.0187 24.9074 27.0629C24.8497 27.1887 24.7842 27.3292 24.7043 27.4765V27.4844C24.6899 27.5286 24.6677 27.5581 24.6467 27.6023C24.6322 27.6397 24.6178 27.6691 24.5956 27.6986C24.5879 27.7281 24.5668 27.7507 24.5524 27.7723C24.5446 27.787 24.4725 27.898 24.4725 27.9048C24.4503 27.9343 24.4292 27.9717 24.4215 28.0012C24.407 28.0159 24.3848 28.0601 24.3782 28.0748C24.3638 28.0895 24.3493 28.119 24.3349 28.1337C24.3061 28.1859 24.2839 28.2369 24.2262 28.3037C24.2118 28.3185 24.1752 28.3706 24.1685 28.3853C24.0598 28.5553 23.9367 28.7253 23.7858 28.8952L23.778 28.91C23.6626 29.0426 23.5395 29.1831 23.4164 29.3089L23.3587 29.3678C23.3365 29.3825 23.3221 29.404 23.2721 29.4494C23.2577 29.4641 23.2433 29.4788 23.2355 29.4936C23.2067 29.5162 23.1778 29.5457 23.1412 29.5899C23.119 29.6046 23.098 29.6273 23.0758 29.642C22.9027 29.8041 22.7075 29.9672 22.49 30.1225C22.4246 30.1746 22.3602 30.2256 22.287 30.2698C22.0773 30.4103 21.8455 30.5508 21.607 30.6834C21.2531 30.8761 20.9269 31.0234 20.5875 31.1344C20.5586 31.1492 20.5298 31.1571 20.5076 31.1639C20.4643 31.1786 20.421 31.1933 20.3922 31.2013L19.9729 31.3271C19.3938 31.4823 18.7936 31.5492 18.179 31.5492C14.1364 31.5492 10.846 28.1949 10.8383 24.0509L10.8394 24.0497ZM22.7574 32.5849C22.9194 32.4954 23.0813 32.4081 23.2433 32.3016C23.352 32.2347 23.4463 32.169 23.5395 32.1022C23.6693 32.0206 23.7924 31.9254 23.9522 31.7996L24.1619 31.6296C24.2994 31.5265 24.4226 31.4155 24.5013 31.3418C24.6023 31.2602 24.6822 31.1718 24.7831 31.0687L24.9639 30.884C25.0582 30.7956 25.137 30.6993 25.2169 30.6109L25.4343 30.3673C25.5064 30.2789 25.5863 30.1825 25.6584 30.0862L25.7594 29.9604C25.8315 29.8573 25.8969 29.7542 25.9624 29.6499L25.9846 29.6273C26.0567 29.5389 26.1432 29.4131 26.2087 29.2953C26.2519 29.2363 26.2952 29.1627 26.2952 29.1627C26.3318 29.0958 26.3751 29.0301 26.4039 28.9632C26.4549 28.8896 26.5049 28.808 26.5481 28.7196C26.577 28.6607 26.5992 28.6017 26.5992 28.6017C26.628 28.5644 26.6502 28.5281 26.6646 28.4839C26.6935 28.4397 26.7079 28.3955 26.7223 28.3581C26.7445 28.3286 26.7589 28.2913 26.7656 28.2765C26.8377 28.1133 26.9098 27.9592 26.9686 27.8108L26.9908 27.7666C27.0274 27.6929 27.0562 27.6193 27.0706 27.5739L27.1073 27.4708L27.1361 27.3745C27.1649 27.2929 27.1938 27.2125 27.2226 27.1229C27.2304 27.0935 27.2448 27.0493 27.2659 26.9824L27.3092 26.8272C27.338 26.7388 27.3668 26.6504 27.389 26.5541V26.5461C27.4545 26.324 27.4978 26.0951 27.5266 25.9184C27.5843 25.66 27.6131 25.4164 27.6497 25.1353C27.6619 24.9993 27.6708 24.869 27.6775 24.7455C28.1978 24.6299 28.7247 24.5506 29.2594 24.5506C29.3837 24.5495 29.5046 24.5506 29.6278 24.5574C30.1103 24.5812 30.5951 24.673 31.0788 24.7965C31.0877 24.9008 31.0977 25.0141 31.1143 25.1501L31.1287 25.1863C31.1354 25.2974 31.1432 25.379 31.1576 25.4447C31.1798 25.6147 31.2008 25.7846 31.2297 25.9104C31.5481 27.5501 32.2714 29.0947 33.3342 30.3729C33.4717 30.535 33.6304 30.7049 33.7535 30.8307C33.9199 31.0075 34.1007 31.1775 34.2305 31.2817C34.2882 31.3486 34.3459 31.4075 34.4258 31.4664C34.8163 31.8064 35.229 32.1169 35.6406 32.3673C35.6472 32.3719 35.6539 32.3753 35.6605 32.3798C33.7136 33.6773 31.3961 34.3923 29.0453 34.3923C26.821 34.3923 24.6655 33.7679 22.7596 32.5849H22.7574ZM40.5928 31.3565C39.8695 31.3565 39.1684 31.2455 38.5094 31.0392C38.4661 31.003 38.0035 30.8625 37.9891 30.8545C37.8882 30.8183 37.7717 30.7661 37.6707 30.7219C36.8531 30.3457 36.101 29.8063 35.4575 29.1332C35.3566 29.0369 35.2478 28.9111 35.1535 28.8012C34.3437 27.8402 33.8012 26.681 33.5694 25.4402C33.5472 25.337 33.5261 25.2328 33.5039 25.056C33.4961 25.0118 33.4895 24.9597 33.4817 24.9234L33.4751 24.835C33.4606 24.7024 33.4462 24.5687 33.4385 24.4656L33.4307 24.052C33.4307 23.9489 33.4307 23.8458 33.4385 23.7268C33.525 21.9171 34.2561 20.2105 35.4997 18.9255C35.6372 18.7849 35.7892 18.6524 35.9334 18.5118C35.9623 18.4971 35.9845 18.4677 36.0632 18.4087C36.1786 18.3124 36.2951 18.2093 36.4249 18.113H36.4327C36.4471 18.1062 36.4615 18.0982 36.4759 18.0835L36.5336 18.0393L36.6279 17.9804C36.7222 17.9135 36.8165 17.8546 36.9319 17.7877C37.055 17.7062 37.1926 17.6257 37.308 17.5668L37.6119 17.4115C37.9303 17.2642 38.2698 17.1305 38.6248 17.0353C38.769 16.9911 38.9143 16.9537 39.0585 16.9243C39.1739 16.8948 39.2971 16.8653 39.4269 16.8427C39.499 16.8347 39.5711 16.82 39.702 16.8132C39.7963 16.7985 39.8972 16.7837 40.0204 16.7758C40.0858 16.7679 40.1579 16.7611 40.2156 16.7611H40.2522L40.2667 16.7758H41.3805L41.3949 16.8053C44.7796 17.1974 47.4842 20.0258 47.7161 23.5568C47.7305 23.7188 47.7383 23.882 47.7383 24.052C47.7383 28.085 44.5267 31.3588 40.5928 31.3588V31.3565Z" fill="white"/>
</svg>
