<svg width="174" height="42" viewBox="0 0 174 42" fill="none" xmlns="http://www.w3.org/2000/svg">
<path d="M169.174 1.48631H168.312V1.00317H170.555V1.48631H169.689V3.94308H169.174V1.48631Z" fill="#F5F5F5"/>
<path d="M170.702 1.00464H171.3L172.14 3.24298L172.977 1.00464H173.575V3.94326H173.061V2.1418L172.393 3.92656L172.397 3.94326H171.882L171.886 3.92656L171.219 2.1418V3.94326H170.704V1.00464H170.702Z" fill="#F5F5F5"/>
<path d="M9.72005 6.47724H0.666504V1.40308H24.2345V6.47724H15.1368V32.2927H9.72131V6.47724H9.72005Z" fill="#F5F5F5"/>
<path d="M29.8184 9.91943C36.5332 9.91943 40.995 14.4655 40.995 21.2602C40.995 28.0549 36.5332 32.6896 29.8184 32.6896C23.1036 32.6896 18.5977 28.0998 18.5977 21.2602C18.5977 14.4205 23.1036 9.91943 29.8184 9.91943ZM29.7755 27.8364C33.4148 27.8364 35.7965 25.4092 35.7965 21.3052C35.7965 17.2011 33.4136 14.7739 29.7755 14.7739C26.1374 14.7739 23.7974 17.2011 23.7974 21.3052C23.7974 25.4092 26.1803 27.8364 29.7755 27.8364Z" fill="#F5F5F5"/>
<path d="M42.5576 41.1187V21.2165C42.5576 14.1121 47.5392 9.87573 53.8654 9.87573C60.1917 9.87573 64.9562 14.4205 64.9562 21.2165C64.9562 28.0124 60.4503 32.6459 54.1253 32.6459C51.0069 32.6459 48.7968 31.4984 47.7574 30.13V41.1187H42.5589H42.5576ZM53.7342 14.7302C50.139 14.7302 47.7561 17.1574 47.7561 21.2615C47.7561 25.3655 50.139 27.7927 53.7342 27.7927C57.3294 27.7927 59.7565 25.3655 59.7565 21.2615C59.7565 17.1574 57.3735 14.7302 53.7342 14.7302Z" fill="#F5F5F5"/>
<path d="M67.2935 1.40332H81.8508C86.7894 1.40332 89.9078 4.80195 89.9078 9.56645C89.9078 12.5667 88.6943 14.4209 86.8311 15.436C89.735 16.4074 92.0737 18.9233 92.0737 23.247C92.0737 28.5422 88.6085 32.2929 83.0631 32.2929H67.2935V1.40332ZM84.4936 9.9198C84.4936 7.80224 83.1501 6.47749 81.157 6.47749H72.7102V13.3171H81.157C83.1501 13.3171 84.4936 11.9487 84.4936 9.91852V9.9198ZM86.6595 22.85C86.6595 20.1581 84.9263 18.3926 82.3705 18.3926H72.7102V27.2187H82.3705C84.9263 27.2187 86.6595 25.4533 86.6595 22.85Z" fill="#F5F5F5"/>
<path d="M105.032 9.91943C111.747 9.91943 116.21 14.4655 116.21 21.2602C116.21 28.0549 111.747 32.6896 105.032 32.6896C98.3175 32.6896 93.8115 28.0998 93.8115 21.2602C93.8115 14.4205 98.3188 9.91943 105.032 9.91943ZM104.989 27.8364C108.629 27.8364 111.012 25.4092 111.012 21.3052C111.012 17.2011 108.629 14.7739 104.989 14.7739C101.35 14.7739 99.01 17.2011 99.01 21.3052C99.01 25.4092 101.394 27.8364 104.989 27.8364Z" fill="#F5F5F5"/>
<path d="M135.46 10.2302H140.353V15.0846H135.417V32.2872H130.217V15.0846H124.712V32.2872H119.512V15.0846H117.346V10.2302H119.555C120.039 4.26813 123.761 1.0918 130.387 1.0918V5.94624C126.836 5.94624 125.146 7.18362 124.755 10.2302H130.26C130.735 4.26813 134.466 1.0918 141.092 1.0918V5.94624C137.541 5.94624 135.851 7.18362 135.46 10.2302Z" fill="#F5F5F5"/>
<path d="M144.553 0.91748C146.156 0.91748 147.411 2.24224 147.411 3.83041C147.411 5.50723 146.155 6.78702 144.553 6.78702C142.951 6.78702 141.694 5.50723 141.694 3.83041C141.694 2.24224 142.951 0.91748 144.553 0.91748ZM141.952 10.2293H147.151V32.2928H141.952V10.2293Z" fill="#F5F5F5"/>
<path d="M168.991 19.1428V32.2928H163.793V19.2739C163.793 16.1413 161.54 14.7291 159.027 14.7291C156.514 14.7291 154.261 16.1413 154.261 19.2739V32.2928H149.062V19.1428C149.062 15.3035 151.878 9.83228 159.026 9.83228C166.173 9.83228 168.99 15.3035 168.99 19.1428H168.991Z" fill="#F5F5F5"/>
</svg>
